<svg xmlns="http://www.w3.org/2000/svg" xmlns:xlink="http://www.w3.org/1999/xlink" width="760" height="480" viewBox="0 0 760 480">
  <defs>
    <rect id="afternet-a" width="758" height="478" x="1" y="1" rx="10"/>
    <linearGradient id="afternet-d" x1="57.413%" x2="42.445%" y1="48.283%" y2="50%">
      <stop offset="0%" stop-color="#8B2D84"/>
      <stop offset="100%" stop-color="#FFCA28"/>
    </linearGradient>
    <path id="afternet-c" d="M7.14101695,0.289180328 C10.7613559,0.264262295 13.76,2.51540984 16.4827119,4.98491803 C19.2054237,2.51540984 22.2047458,0.264262295 25.8250847,0.289180328 L25.8250847,3.0852459 C23.1328814,3.06360656 21.0901695,5.00131148 18.9077966,7.24786885 C21.2684746,9.44852459 23.4867797,11.307541 25.8250847,11.2609836 L25.8250847,13.9711554 C21.7349153,13.9757377 18.8935593,11.9796721 16.4827119,9.6957377 C14.0725424,11.9796721 11.2311864,13.9757377 7.14101695,13.9711554 C3.23457627,13.9711554 0.0677966102,10.9081967 0.0677966102,7.12983607 C0.0677966102,3.35213115 3.23457627,0.289180328 7.14101695,0.289180328 Z M7.18576271,3.0852459 L7.18576271,3.08590164 C7.17084746,3.08590164 7.1559322,3.08590164 7.14101695,3.08590164 C4.80677966,3.08590164 2.91457627,4.91540984 2.91457627,7.17311475 C2.91457627,9.43081967 4.80677966,11.2609836 7.14101695,11.2609836 C7.1559322,11.2609836 7.17084746,11.2609836 7.18576271,11.2603279 L7.18576271,11.2616393 C9.50711864,11.2839344 11.7125424,9.4347541 14.0576271,7.24786885 C11.8881356,5.01377049 9.85559322,3.0852459 7.18576271,3.0852459 Z M25.8250847,0.289180328 C29.7315254,0.289180328 32.8983051,3.35213115 32.8983051,7.1304918 C32.8983051,10.9081967 29.7315254,13.9711475 25.8250847,13.9711475 L25.8250847,11.2609836 C28.1586441,11.2609836 30.0508475,9.43081967 30.0508475,7.17311475 C30.0508475,4.91540984 28.1586441,3.08590164 25.8250847,3.08590164 L25.8250847,0.289180328 Z"/>
    <linearGradient id="afternet-h" x1="39.467%" x2="64.64%" y1="46.083%" y2="54.265%">
      <stop offset="0%" stop-color="#FFC107"/>
      <stop offset="100%" stop-color="#9C27B0"/>
    </linearGradient>
    <path id="afternet-g" d="M1.11457627,-4.72065574 L16.2122034,2.06032787 L16.4827119,4.98557377 L18.9261017,7.26295082 L23.9254237,10.1278689 L25.9220339,11.2570492 C29.5111864,11.455082 32.8983051,8.75081967 32.8983051,6.39344262 C32.8983051,4.03540984 35.9355932,5.99934426 35.8881356,6.26295082 C35.6576271,7.53967213 27.9437288,16.1868852 26.7979661,16.597377 C26.3213559,16.7678689 19.2494915,13.5403279 19.2494915,13.5403279 C19.2494915,13.5403279 18.0250847,11.5685246 16.5145763,9.73442623 C15.7227119,8.77245902 14.7138983,7.95213115 14.059661,7.24983607 C13.6481356,6.80721311 12.3118644,6.08721311 12.3118644,6.08721311 L7.18033898,3.04655738 C2.4379661,3.04655738 0.0677966102,5.76786885 0.0677966102,7.24983607 C0.0677966102,8.73180328 -3.49084746,14.9180328 -3.49084746,14.9180328 L1.11457627,-4.72065574 Z"/>
    <filter id="afternet-f" width="135.6%" height="165.7%" x="-17.8%" y="-23.4%" filterUnits="objectBoundingBox">
      <feOffset dy="2" in="SourceAlpha" result="shadowOffsetOuter1"/>
      <feGaussianBlur in="shadowOffsetOuter1" result="shadowBlurOuter1" stdDeviation="2"/>
      <feColorMatrix in="shadowBlurOuter1" values="0 0 0 0 0   0 0 0 0 0   0 0 0 0 0  0 0 0 0.25 0"/>
    </filter>
    <path id="afternet-i" d="M11.1410169,5.28918033 C14.7613559,5.2642623 17.76,7.51540984 20.4827119,9.98491803 C23.2054237,7.51540984 26.2047458,5.2642623 29.8250847,5.28918033 L29.8250847,8.0852459 C27.1328814,8.06360656 25.0901695,10.0013115 22.9077966,12.2478689 C25.2684746,14.4485246 27.4867797,16.307541 29.8250847,16.2609836 L29.8250847,18.9711554 C25.7349153,18.9757377 22.8935593,16.9796721 20.4827119,14.6957377 C18.0725424,16.9796721 15.2311864,18.9757377 11.1410169,18.9711554 C7.23457627,18.9711554 4.06779661,15.9081967 4.06779661,12.1298361 C4.06779661,8.35213115 7.23457627,5.28918033 11.1410169,5.28918033 Z M11.1857627,8.0852459 L11.1857627,8.08590164 C11.1708475,8.08590164 11.1559322,8.08590164 11.1410169,8.08590164 C8.80677966,8.08590164 6.91457627,9.91540984 6.91457627,12.1731148 C6.91457627,14.4308197 8.80677966,16.2609836 11.1410169,16.2609836 C11.1559322,16.2609836 11.1708475,16.2609836 11.1857627,16.2603279 L11.1857627,16.2616393 C13.5071186,16.2839344 15.7125424,14.4347541 18.0576271,12.2478689 C15.8881356,10.0137705 13.8555932,8.0852459 11.1857627,8.0852459 Z M29.8250847,5.28918033 C33.7315254,5.28918033 36.8983051,8.35213115 36.8983051,12.1304918 C36.8983051,15.9081967 33.7315254,18.9711475 29.8250847,18.9711475 L29.8250847,16.2609836 C32.1586441,16.2609836 34.0508475,14.4308197 34.0508475,12.1731148 C34.0508475,9.91540984 32.1586441,8.08590164 29.8250847,8.08590164 L29.8250847,5.28918033 Z"/>
    <path id="afternet-l" d="M5.11457627,0.279344262 L20.2122034,7.06032787 L20.4827119,9.98557377 L22.9261017,12.2629508 L27.9254237,15.1278689 L29.9220339,16.2570492 C33.5111864,16.455082 36.8983051,13.7508197 36.8983051,11.3934426 C36.8983051,9.03540984 39.9355932,10.9993443 39.8881356,11.2629508 C39.6576271,12.5396721 31.9437288,21.1868852 30.7979661,21.597377 C30.3213559,21.7678689 23.2494915,18.5403279 23.2494915,18.5403279 C23.2494915,18.5403279 22.0250847,16.5685246 20.5145763,14.7344262 C19.7227119,13.772459 18.7138983,12.9521311 18.059661,12.2498361 C17.6481356,11.8072131 16.3118644,11.0872131 16.3118644,11.0872131 L11.180339,8.04655738 C6.4379661,8.04655738 4.06779661,10.7678689 4.06779661,12.2498361 C4.06779661,13.7318033 0.509152542,19.9180328 0.509152542,19.9180328 L5.11457627,0.279344262 Z"/>
    <filter id="afternet-k" width="135.6%" height="165.7%" x="-17.8%" y="-23.4%" filterUnits="objectBoundingBox">
      <feOffset dy="2" in="SourceAlpha" result="shadowOffsetOuter1"/>
      <feGaussianBlur in="shadowOffsetOuter1" result="shadowBlurOuter1" stdDeviation="2"/>
      <feColorMatrix in="shadowBlurOuter1" values="0 0 0 0 0   0 0 0 0 0   0 0 0 0 0  0 0 0 0.25 0"/>
    </filter>
    <path id="afternet-m" d="M8,0 L352,0 C356.418278,-8.11624501e-16 360,3.581722 360,8 L360,227 C360,231.418278 356.418278,235 352,235 L8,235 C3.581722,235 5.41083001e-16,231.418278 0,227 L0,8 C-5.41083001e-16,3.581722 3.581722,8.11624501e-16 8,0 Z"/>
    <path id="afternet-o" d="M8,0 L352,0 C356.418278,-8.11624501e-16 360,3.581722 360,8 L360,130.347656 C360,134.765934 356.418278,138.347656 352,138.347656 L8,138.347656 C3.581722,138.347656 5.41083001e-16,134.765934 0,130.347656 L0,8 C-5.41083001e-16,3.581722 3.581722,-6.29380286e-15 8,0 Z"/>
  </defs>
  <g fill="none" fill-rule="evenodd">
    <mask id="afternet-b" fill="#fff">
      <use xlink:href="#afternet-a"/>
    </mask>
    <rect width="759" height="479" x=".5" y=".5" stroke="#DDD" rx="10"/>
    <g mask="url(#afternet-b)">
      <rect width="760" height="59" fill="#F3F5F3"/>
      <path fill="#333" fill-opacity=".2" d="M107 2C107 .8954305 107.899785 0 109.002285 0L137.997715 0C139.103546 0 140 .887729645 140 2L140 2C140 3.1045695 139.100215 4 137.997715 4L109.002285 4C107.896454 4 107 3.11227036 107 2L107 2zM68 2C68 .8954305 68.8997127 0 69.9932874 0L95.0067126 0C96.1075748 0 97 .887729645 97 2L97 2C97 3.1045695 96.1002873 4 95.0067126 4L69.9932874 4C68.8924252 4 68 3.11227036 68 2L68 2zM0 2C0 .8954305.887832139 0 1.99649128 0L56.0035087 0C57.1061404 0 58 .887729645 58 2L58 2C58 3.1045695 57.1121679 4 56.0035087 4L1.99649128 4C.893859594 4 0 3.11227036 0 2L0 2z" transform="translate(520 28)"/>
      <g transform="translate(100 10)">
        <path fill="#770076" fill-rule="nonzero" d="M3.232 8.712L1.776 8.712 1.776 11.528.432 11.528.432 12.76 1.776 12.76 1.776 19 3.232 19 3.232 12.76 4.816 12.76 4.816 11.528 3.232 11.528 3.232 8.712zM7.42 14.968C7.42 14.232 7.644 13.688 8.108 13.336 8.572 12.968 9.1 12.792 9.692 12.792 10.732 12.792 11.452 13.56 11.452 14.776L11.452 19 12.908 19 12.908 14.68C12.924 12.584 11.756 11.368 9.884 11.368 9.42 11.368 8.94 11.48 8.444 11.704 7.964 11.912 7.628 12.232 7.42 12.648L7.42 7.464 5.964 7.464 5.964 19 7.42 19 7.42 14.968zM18.072 11.368C19.144 11.368 20.04 11.72 20.728 12.44 21.432 13.144 21.784 14.072 21.784 15.24L21.780544 15.6432C21.77824 15.7136 21.7744 15.7712 21.768 15.816L15.704 15.816C15.88 17.048 16.84 17.848 18.12 17.848 19.032 17.848 19.864 17.416 20.264 16.696L20.468544 16.774592C20.5872 16.82336 20.7312 16.8848 20.904 16.952L21.512 17.176C20.888 18.456 19.56 19.16 18.072 19.16 16.984 19.16 16.072 18.792 15.336 18.072 14.616 17.352 14.248 16.408 14.248 15.24 14.248 14.072 14.616 13.144 15.336 12.44 16.072 11.72 16.984 11.368 18.072 11.368zM18.072 12.68C16.808 12.68 15.88 13.448 15.704 14.68L15.704 14.68 20.344 14.68C20.168 13.448 19.288 12.68 18.072 12.68zM37.864 21L37.864 9.792 35.704 9.792 35.704 11.472C35.008 10.248 33.4 9.552 31.768 9.552 30.184 9.552 28.84 10.08 27.736 11.16 26.632 12.24 26.08 13.632 26.08 15.384 26.08 17.112 26.632 18.528 27.736 19.608 28.84 20.688 30.184 21.24 31.768 21.24 33.4 21.24 34.96 20.52 35.704 19.272L35.704 21 37.864 21zM35.68 15.36C35.68 16.512 35.32 17.424 34.6 18.096 33.88 18.768 32.992 19.104 31.96 19.104 30.928 19.104 30.064 18.744 29.368 18.048 28.672 17.352 28.312 16.44 28.312 15.36 28.312 14.28 28.648 13.392 29.344 12.72 30.04 12.024 30.928 11.688 31.96 11.688 32.944 11.688 33.808 12.024 34.552 12.672 35.296 13.32 35.68 14.232 35.68 15.36zM46.242 3.696C43.338 3.696 41.946 5.568 41.946 8.664L41.946 9.792 39.786 9.792 39.786 11.64 41.946 11.64 41.946 21 44.154 21 44.154 11.64 46.746 11.64 46.746 9.792 44.154 9.792 44.154 8.664C44.13 6.744 44.826 5.784 46.242 5.784L47.466 5.784 47.466 3.696 46.242 3.696zM51.668 5.568L49.484 5.568 49.484 9.792 47.468 9.792 47.468 11.64 49.484 11.64 49.484 21 51.668 21 51.668 11.64 54.044 11.64 54.044 9.792 51.668 9.792 51.668 5.568zM57.238 14.52C57.502 12.672 58.894 11.52 60.79 11.52 62.614 11.52 63.934 12.672 64.198 14.52L57.238 14.52zM66.358 15.36C66.358 13.608 65.83 12.216 64.774 11.16 63.742 10.08 62.398 9.552 60.79 9.552 59.158 9.552 57.79 10.08 56.686 11.16 55.606 12.216 55.054 13.608 55.054 15.36 55.054 17.112 55.606 18.528 56.686 19.608 57.79 20.688 59.158 21.24 60.79 21.24 63.022 21.24 65.014 20.184 65.95 18.264L65.038 17.928 64.2872128 17.6222274C64.2092653 17.5910204 64.1397142 17.5645714 64.078 17.544 63.478 18.624 62.23 19.272 60.862 19.272 58.942 19.272 57.502 18.072 57.238 16.224L66.334 16.224C66.358 16.056 66.358 15.768 66.358 15.36zM70.776 16.92C70.776 13.752 71.808 11.64 73.848 11.64 74.424 11.64 74.976 11.76 75.504 12.024L75.84 9.984C75.432 9.696 74.784 9.552 73.896 9.552 72.36 9.552 71.328 10.464 70.776 12.312L70.776 9.792 68.592 9.792 68.592 21 70.776 21 70.776 16.92zM79.7059999 14.952C79.7059999 12.744 81.1219999 11.688 82.8739999 11.688 84.4099999 11.688 85.3459999 12.816 85.3459999 14.664L85.3459999 21 87.5299999 21 87.5299999 14.52C87.5299999 11.352 85.9939999 9.552 83.2099999 9.552 81.8419999 9.552 80.3539999 10.224 79.7059999 11.472L79.7059999 9.792 77.5219999 9.792 77.5219999 21 79.7059999 21 79.7059999 14.952zM91.9239999 14.52C92.1879999 12.672 93.5799999 11.52 95.4759999 11.52 97.2999999 11.52 98.6199999 12.672 98.8839999 14.52L91.9239999 14.52zM101.044 15.36C101.044 13.608 100.516 12.216 99.4599999 11.16 98.4279999 10.08 97.0839999 9.552 95.4759999 9.552 93.8439999 9.552 92.4759999 10.08 91.3719999 11.16 90.2919999 12.216 89.7399999 13.608 89.7399999 15.36 89.7399999 17.112 90.2919999 18.528 91.3719999 19.608 92.4759999 20.688 93.8439999 21.24 95.4759999 21.24 97.7079999 21.24 99.6999999 20.184 100.636 18.264L99.7239999 17.928 98.9732128 17.6222274C98.8952652 17.5910204 98.8257142 17.5645714 98.7639999 17.544 98.1639999 18.624 96.9159999 19.272 95.5479999 19.272 93.6279999 19.272 92.1879999 18.072 91.9239999 16.224L101.02 16.224C101.044 16.056 101.044 15.768 101.044 15.36zM106.302 5.568L106.302 9.792 108.678 9.792 108.678 11.64 106.302 11.64 106.302 21 104.118 21 104.118 11.64 102.102 11.64 102.102 9.792 104.118 9.792 104.118 5.568 106.302 5.568z"/>
        <g transform="translate(115)">
          <g transform="translate(0 13)">
            <mask id="afternet-e" fill="#fff">
              <use xlink:href="#afternet-c"/>
            </mask>
            <use fill="url(#afternet-d)" fill-rule="nonzero" xlink:href="#afternet-c"/>
            <g mask="url(#afternet-e)">
              <use fill="#000" filter="url(#afternet-f)" xlink:href="#afternet-g"/>
              <use fill="url(#afternet-h)" xlink:href="#afternet-g"/>
            </g>
          </g>
          <g transform="matrix(0 -1 -1 0 28.82 40.82)">
            <mask id="afternet-j" fill="#fff">
              <use xlink:href="#afternet-i"/>
            </mask>
            <use fill="url(#afternet-d)" fill-rule="nonzero" xlink:href="#afternet-i"/>
            <g mask="url(#afternet-j)">
              <use fill="#000" filter="url(#afternet-k)" xlink:href="#afternet-l"/>
              <use fill="url(#afternet-h)" xlink:href="#afternet-l"/>
            </g>
          </g>
        </g>
      </g>
    </g>
    <g mask="url(#afternet-b)">
      <g transform="translate(495 84)">
        <path fill="#333" fill-opacity=".5" d="M0,2 C0,0.8954305 0.898855112,0 2.00492334,0 L41.9950767,0 C43.1023652,0 44,0.887729645 44,2 L44,2 C44,3.1045695 43.1011449,4 41.9950767,4 L2.00492334,4 C0.897634756,4 0,3.11227036 0,2 L0,2 Z"/>
        <g transform="translate(0 54)">
          <g fill="#333">
            <path fill-opacity=".2" d="M0,4 C0,2.8954305 0.891374564,2 2.00032778,2 L74.9996722,2 C76.1044227,2 77,2.88772964 77,4 L77,4 C77,5.1045695 76.1086254,6 74.9996722,6 L2.00032778,6 C0.89557725,6 0,5.11227036 0,4 L0,4 Z"/>
            <polygon fill-opacity=".5" fill-rule="nonzero" points="160.822 6.322 163.5 3.651 166.178 6.322 167 5.5 163.5 2 160 5.5" transform="rotate(90 163.5 4.161)"/>
          </g>
          <g fill="#333" transform="translate(0 18)">
            <path fill-opacity=".2" d="M0,4 C0,2.8954305 0.900351021,2 1.99263021,2 L60.0073698,2 C61.1078691,2 62,2.88772964 62,4 L62,4 C62,5.1045695 61.099649,6 60.0073698,6 L1.99263021,6 C0.892130935,6 0,5.11227036 0,4 L0,4 Z"/>
            <polygon fill-opacity=".5" fill-rule="nonzero" points="160.822 6.322 163.5 3.651 166.178 6.322 167 5.5 163.5 2 160 5.5" transform="rotate(90 163.5 4.161)"/>
          </g>
          <g fill="#333" transform="translate(0 36)">
            <path fill-opacity=".2" d="M0,4 C0,2.8954305 0.898322508,2 2.00371738,2 L94.9962826,2 C96.1029052,2 97,2.88772964 97,4 L97,4 C97,5.1045695 96.1016775,6 94.9962826,6 L2.00371738,6 C0.897094829,6 0,5.11227036 0,4 L0,4 Z"/>
            <polygon fill-opacity=".5" fill-rule="nonzero" points="160.822 6.322 163.5 3.651 166.178 6.322 167 5.5 163.5 2 160 5.5" transform="rotate(90 163.5 4.161)"/>
          </g>
          <g fill="#333" transform="translate(0 54)">
            <path fill-opacity=".2" d="M0,4 C0,2.8954305 0.897077397,2 1.99658634,2 L83.0034137,2 C84.1060978,2 85,2.88772964 85,4 L85,4 C85,5.1045695 84.1029226,6 83.0034137,6 L1.99658634,6 C0.893902152,6 0,5.11227036 0,4 L0,4 Z"/>
            <polygon fill-opacity=".5" fill-rule="nonzero" points="160.822 6.322 163.5 3.651 166.178 6.322 167 5.5 163.5 2 160 5.5" transform="rotate(90 163.5 4.161)"/>
          </g>
        </g>
        <g transform="translate(0 19)">
          <path fill="#333" fill-opacity=".3" d="M30 10C30 8.8954305 30.8998975 8 31.9912443 8L56.0087557 8C57.1084896 8 58 8.88772964 58 10L58 10C58 11.1045695 57.1001025 12 56.0087557 12L31.9912443 12C30.8915104 12 30 11.1122704 30 10L30 10zM65 10C65 8.8954305 65.8988551 8 67.0049233 8L106.995077 8C108.102365 8 109 8.88772964 109 10L109 10C109 11.1045695 108.101145 12 106.995077 12L67.0049233 12C65.8976348 12 65 11.1122704 65 10L65 10z"/>
          <path fill="#FF6F00" d="M10,0 C15.5228475,-1.01453063e-15 20,4.4771525 20,10 C20,15.5228475 15.5228475,20 10,20 L0,20 L0,20 L0,10 C-6.76353751e-16,4.4771525 4.4771525,1.01453063e-15 10,0 Z"/>
        </g>
      </g>
    </g>
    <g mask="url(#afternet-b)">
      <g transform="translate(100 84)">
        <g transform="translate(0 19)">
          <mask id="afternet-n" fill="#fff">
            <use xlink:href="#afternet-m"/>
          </mask>
          <path stroke="#EEE" d="M8,0.5 C3.85786438,0.5 0.5,3.85786438 0.5,8 L0.5,227 C0.5,231.142136 3.85786438,234.5 8,234.5 L352,234.5 C356.142136,234.5 359.5,231.142136 359.5,227 L359.5,8 C359.5,3.85786438 356.142136,0.5 352,0.5 L8,0.5 Z"/>
          <g mask="url(#afternet-n)">
            <g transform="translate(115 125)">
              <g fill-opacity=".2" opacity=".5">
                <path fill="#333" d="M0 2C0 .8954305.893082022 0 1.9937508 0L74.0062492 0C75.1073674 0 76 .887729645 76 2L76 2C76 3.1045695 75.106918 4 74.0062492 4L1.9937508 4C.89263264 4 0 3.11227036 0 2L0 2zM83 2C83 .8954305 83.8959923 0 84.9992604 0L132.00074 0C133.104901 0 134 .887729645 134 2L134 2C134 3.1045695 133.104008 4 132.00074 4L84.9992604 4C83.8950994 4 83 3.11227036 83 2L83 2zM141 2C141 .8954305 141.893082 0 142.993751 0L215.006249 0C216.107367 0 217 .887729645 217 2L217 2C217 3.1045695 216.106918 4 215.006249 4L142.993751 4C141.892633 4 141 3.11227036 141 2L141 2z"/>
                <path fill="#333" d="M0 2C0 .8954305.89889206 0 1.99165754 0L43.0083425 0C44.1083045 0 45 .887729645 45 2L45 2C45 3.1045695 44.1011079 4 43.0083425 4L1.99165754 4C.891695454 4 0 3.11227036 0 2L0 2zM52 2C52 .8954305 52.8957251 0 53.9984678 0L124.001532 0C125.105255 0 126 .887729645 126 2L126 2C126 3.1045695 125.104275 4 124.001532 4L53.9984678 4C52.8947445 4 52 3.11227036 52 2L52 2zM195 2C195 .8954305 195.894338 0 196.998214 0L224.001786 0C225.105369 0 226 .887729645 226 2L226 2C226 3.1045695 225.105662 4 224.001786 4L196.998214 4C195.894631 4 195 3.11227036 195 2L195 2zM133 2C133 .8954305 133.886196 0 135.006309 0L185.993691 0C187.101745 0 188 .887729645 188 2L188 2C188 3.1045695 187.113804 4 185.993691 4L135.006309 4C133.898255 4 133 3.11227036 133 2L133 2z" transform="translate(0 19)"/>
                <path fill="#333" d="M0 2C0 .8954305.904724121 0 2.00329863 0L61.9967014 0C63.1030927 0 64 .887729645 64 2L64 2C64 3.1045695 63.0952759 4 61.9967014 4L2.00329863 4C.896907345 4 0 3.11227036 0 2L0 2zM71 2C71 .8954305 71.8997849 0 73.0022853 0L101.997715 0C103.103546 0 104 .887729645 104 2L104 2C104 3.1045695 103.100215 4 101.997715 4L73.0022853 4C71.8964537 4 71 3.11227036 71 2L71 2zM111 2C111 .8954305 111.895051 0 112.997538 0L209.002462 0C210.105672 0 211 .887729645 211 2L211 2C211 3.1045695 210.104949 4 209.002462 4L112.997538 4C111.894328 4 111 3.11227036 111 2L111 2z" transform="translate(0 38)"/>
                <path fill="#333" d="M0 2C0 .8954305.90234375 0 1.99456145 0L19.0054385 0C20.1070044 0 21 .887729645 21 2L21 2C21 3.1045695 20.0976562 4 19.0054385 4L1.99456145 4C.892995579 4 0 3.11227036 0 2L0 2zM28 2C28 .8954305 28.8953339 0 29.9952381 0L83.0047619 0C84.1067015 0 85 .887729645 85 2L85 2C85 3.1045695 84.1046661 4 83.0047619 4L29.9952381 4C28.8932985 4 28 3.11227036 28 2L28 2zM92 2C92 .8954305 92.9023082 0 93.9930696 0L146.00693 0C147.107672 0 148 .887729645 148 2L148 2C148 3.1045695 147.097692 4 146.00693 4L93.9930696 4C92.8923277 4 92 3.11227036 92 2L92 2z" transform="translate(0 57)"/>
              </g>
              <path fill="#770076" fill-opacity=".5" d="M0 2C0 .8954305.892951403 0 2.00661467 0L79.9933853 0C81.101608 0 82 .887729645 82 2L82 2C82 3.1045695 81.1070486 4 79.9933853 4L2.00661467 4C.898391991 4 0 3.11227036 0 2L0 2zM89 2C89 .8954305 89.8953339 0 90.9952381 0L144.004762 0C145.106701 0 146 .887729645 146 2L146 2C146 3.1045695 145.104666 4 144.004762 4L90.9952381 4C89.8932985 4 89 3.11227036 89 2L89 2z" transform="translate(0 86)"/>
            </g>
          </g>
          <g mask="url(#afternet-n)">
            <rect width="360" height="105" fill="#448AFF"/>
            <path fill="#304FFE" d="M60,54 C79.3299662,54 95,69.6700338 95,89 C95,108.329966 79.3299662,124 60,124 L25,124 L25,124 L25,89 C25,69.6700338 40.6700338,54 60,54 Z"/>
            <path fill="#FFF" d="M115,69 C115,67.8954305 115.904002,67 116.99481,67 L214.00519,67 C215.106893,67 216,67.8877296 216,69 L216,69 C216,70.1045695 215.095998,71 214.00519,71 L116.99481,71 C115.893107,71 115,70.1122704 115,69 L115,69 Z"/>
            <path fill="#FFF" fill-opacity=".5" d="M115,83 C115,81.8954305 115.898855,81 117.004923,81 L156.995077,81 C158.102365,81 159,81.8877296 159,83 L159,83 C159,84.1045695 158.101145,85 156.995077,85 L117.004923,85 C115.897635,85 115,84.1122704 115,83 L115,83 Z"/>
          </g>
          <g transform="translate(0 245)">
            <mask id="afternet-p" fill="#fff">
              <use xlink:href="#afternet-o"/>
            </mask>
            <path stroke="#EEE" d="M8,0.5 C3.85786438,0.5 0.5,3.85786438 0.5,8 L0.5,130.347656 C0.5,134.489792 3.85786438,137.847656 8,137.847656 L352,137.847656 C356.142136,137.847656 359.5,134.489792 359.5,130.347656 L359.5,8 C359.5,3.85786438 356.142136,0.5 352,0.5 L8,0.5 Z"/>
            <g mask="url(#afternet-p)">
              <g transform="translate(24 20)">
                <path fill="#333" fill-opacity=".3" d="M0,32 C0,30.8954305 0.894337654,30 1.99821383,30 L29.0017862,30 C30.1053692,30 31,30.8877296 31,32 L31,32 C31,33.1045695 30.1056623,34 29.0017862,34 L1.99821383,34 C0.894630804,34 0,33.1122704 0,32 L0,32 Z"/>
                <path fill="#00796B" d="M11,0 C16.5228475,-1.01453063e-15 21,4.4771525 21,10 C21,15.5228475 16.5228475,20 11,20 L1,20 L1,20 L1,10 C1,4.4771525 5.4771525,1.01453063e-15 11,0 Z"/>
              </g>
            </g>
            <g mask="url(#afternet-p)">
              <g transform="translate(115 20)">
                <path fill="#333" fill-opacity=".3" d="M0 16C0 14.8954305.892217249 14 2.00209026 14L51.9979097 14C53.1036337 14 54 14.8877296 54 16L54 16C54 17.1045695 53.1077828 18 51.9979097 18L2.00209026 18C.896366344 18 0 17.1122704 0 16L0 16zM61 16C61 14.8954305 61.8897632 14 63.0035949 14L83.9964051 14C85.10296 14 86 14.8877296 86 16L86 16C86 17.1045695 85.1102368 18 83.9964051 18L63.0035949 18C61.89704 18 61 17.1122704 61 16L61 16z"/>
                <path fill="#333" fill-opacity=".5" d="M0,2 C0,0.8954305 0.898707344,0 1.99859993,0 L116.0014,0 C117.105196,0 118,0.887729645 118,2 L118,2 C118,3.1045695 117.101293,4 116.0014,4 L1.99859993,4 C0.894803667,4 0,3.11227036 0,2 L0,2 Z"/>
                <path fill="#770076" fill-opacity=".5" d="M0 2C0 .8954305.897676239 0 1.99690951 0L51.0030905 0C52.1059532 0 53 .887729645 53 2L53 2C53 3.1045695 52.1023238 4 51.0030905 4L1.99690951 4C.89404684 4 0 3.11227036 0 2L0 2zM60 2C60 .8954305 60.897203 0 61.9982843 0L126.001716 0C127.105338 0 128 .887729645 128 2L128 2C128 3.1045695 127.102797 4 126.001716 4L61.9982843 4C60.8946623 4 60 3.11227036 60 2L60 2z" transform="translate(0 91)"/>
                <g fill-opacity=".2" opacity=".5" transform="translate(0 43)">
                  <path fill="#333" d="M0 2C0 .8954305.897309287 0 1.99175337 0L100.008247 0C101.108262 0 102 .887729645 102 2L102 2C102 3.1045695 101.102691 4 100.008247 4L1.99175337 4C.89173836 4 0 3.11227036 0 2L0 2zM109 2C109 .8954305 109.895992 0 110.99926 0L158.00074 0C159.104901 0 160 .887729645 160 2L160 2C160 3.1045695 159.104008 4 158.00074 4L110.99926 4C109.895099 4 109 3.11227036 109 2L109 2zM167 2C167 .8954305 167.898892 0 168.991658 0L210.008342 0C211.108305 0 212 .887729645 212 2L212 2C212 3.1045695 211.101108 4 210.008342 4L168.991658 4C167.891695 4 167 3.11227036 167 2L167 2z"/>
                  <path fill="#333" d="M0 2C0 .8954305.903139589 0 1.99684302 0L57.003157 0C58.1059829 0 59 .887729645 59 2L59 2C59 3.1045695 58.0968604 4 57.003157 4L1.99684302 4C.894017072 4 0 3.11227036 0 2L0 2zM66 2C66 .8954305 66.8953339 0 67.9952381 0L121.004762 0C122.106701 0 123 .887729645 123 2L123 2C123 3.1045695 122.104666 4 121.004762 4L67.9952381 4C66.8932985 4 66 3.11227036 66 2L66 2zM130 2C130 .8954305 130.894338 0 131.998214 0L159.001786 0C160.105369 0 161 .887729645 161 2L161 2C161 3.1045695 160.105662 4 159.001786 4L131.998214 4C130.894631 4 130 3.11227036 130 2L130 2z" transform="translate(0 19)"/>
                </g>
              </g>
            </g>
          </g>
        </g>
        <path fill="#333" fill-opacity=".5" d="M0,2 C0,0.8954305 0.900351021,0 1.99263021,0 L60.0073698,0 C61.1078691,0 62,0.887729645 62,2 L62,2 C62,3.1045695 61.099649,4 60.0073698,4 L1.99263021,4 C0.892130935,4 0,3.11227036 0,2 L0,2 Z"/>
      </g>
    </g>
  </g>
</svg>
