<?xml version="1.0" encoding="UTF-8"?>
<svg width="260px" height="480px" viewBox="0 0 260 480" version="1.1" xmlns="http://www.w3.org/2000/svg" xmlns:xlink="http://www.w3.org/1999/xlink">
    <!-- Generator: Sketch 45 (43475) - http://www.bohemiancoding.com/sketch -->
    <title>GetShitDone</title>
    <desc>Created with Sketch.</desc>
    <defs>
        <rect id="path-1" x="1" y="1" width="258" height="478" rx="10"></rect>
        <rect id="path-3" x="0" y="0" width="280" height="480"></rect>
    </defs>
    <g id="Page-1" stroke="none" stroke-width="1" fill="none" fill-rule="evenodd">
        <g id="GetShitDone">
            <mask id="mask-2" fill="white">
                <use xlink:href="#path-1"></use>
            </mask>
            <rect stroke="#F6F6F6" x="0.5" y="0.5" width="259" height="479" rx="10"></rect>
            <g id="Background" mask="url(#mask-2)">
                <use fill="#2A1E2A" fill-rule="evenodd" xlink:href="#path-3"></use>
                <rect stroke="#979797" stroke-width="1" x="0.5" y="0.5" width="279" height="479"></rect>
            </g>
            <rect id="Footer" fill-opacity="0.338456748" fill="#FFFFFF" mask="url(#mask-2)" x="80" y="447" width="101" height="4" rx="2"></rect>
            <g id="Content" mask="url(#mask-2)">
                <g transform="translate(0.000000, 232.000000)">
                    <polygon id="Background" fill="#FFFFFF" points="0 0 260 21.68835 260 180.075356 0 189.996094"></polygon>
                    <g id="Row" stroke-width="1" fill="none" transform="translate(20.000000, 118.000000)">
                        <rect id="Title" fill-opacity="0.5" fill="#333333" x="0" y="19" width="71" height="4" rx="2"></rect>
                        <rect id="Title" fill-opacity="0.5" fill="#333333" x="81" y="19" width="37" height="4" rx="2"></rect>
                        <rect id="Subtitle" fill-opacity="0.2" fill="#333333" x="0" y="5" width="110" height="4" rx="2"></rect>
                        <g id="Button" transform="translate(151.000000, 0.000000)">
                            <rect id="Background" fill="#00BCD4" x="0" y="0" width="71" height="23" rx="3"></rect>
                            <rect id="Text" fill-opacity="0.338456748" fill="#FFFFFF" x="18" y="10" width="35" height="4" rx="2"></rect>
                        </g>
                    </g>
                    <g id="Row" stroke-width="1" fill="none" transform="translate(20.000000, 54.000000)">
                        <rect id="Title" fill-opacity="0.5" fill="#333333" x="0" y="14" width="103" height="4" rx="2"></rect>
                        <rect id="Subtitle" fill-opacity="0.2" fill="#333333" x="0" y="0" width="77" height="4" rx="2"></rect>
                        <g id="Button" transform="translate(151.000000, 0.000000)">
                            <rect id="Background" fill="#00BCD4" x="0" y="0" width="71" height="23" rx="3"></rect>
                            <rect id="Text" fill-opacity="0.338456748" fill="#FFFFFF" x="14" y="10" width="43" height="4" rx="2"></rect>
                        </g>
                    </g>
                </g>
            </g>
            <g id="Timer" mask="url(#mask-2)" fill="#FFFFFF" fill-opacity="0.5">
                <g transform="translate(57.000000, 142.000000)">
                    <rect id="Path" x="87" y="0" width="61" height="36" rx="3"></rect>
                    <rect id="Minute" x="0" y="0" width="61" height="36" rx="3"></rect>
                    <path d="M71.2388273,33.5101016 C71.2388273,32.7162469 71.4869032,32.0491983 71.9830624,31.5089361 C72.4792217,30.9686738 73.1683214,30.6985467 74.0503822,30.6985467 C74.9324431,30.6985467 75.6270556,30.9686738 76.1342406,31.5089361 C76.6414256,32.0491983 76.8950143,32.7162469 76.8950143,33.5101016 C76.8950143,34.2819049 76.6414256,34.9213894 76.1342406,35.4285744 C75.6270556,35.9357594 74.9324431,36.1893481 74.0503822,36.1893481 C73.1683214,36.1893481 72.4792217,35.9357594 71.9830624,35.4285744 C71.4869032,34.9213894 71.2388273,34.2819049 71.2388273,33.5101016 Z" id="Path"></path>
                    <path d="M71.3049815,3.01299983 C71.3049815,2.21914506 71.5530574,1.55209654 72.0492166,1.01183426 C72.5453759,0.471571979 73.2344756,0.201444892 74.1165365,0.201444892 C74.9985973,0.201444892 75.6932098,0.471571979 76.2003948,1.01183426 C76.7075798,1.55209654 76.9611685,2.21914506 76.9611685,3.01299983 C76.9611685,3.78480309 76.7075798,4.42428762 76.2003948,4.93147261 C75.6932098,5.43865761 74.9985973,5.6922463 74.1165365,5.6922463 C73.2344756,5.6922463 72.5453759,5.43865761 72.0492166,4.93147261 C71.5530574,4.42428762 71.3049815,3.78480309 71.3049815,3.01299983 Z" id="Path"></path>
                </g>
            </g>
            <g id="Header" mask="url(#mask-2)">
                <polygon id="Background" fill="#FFFFFF" points="0 0 260 0 260 71.3846154 0 80"></polygon>
                <rect id="Title" fill-opacity="0.5" fill="#333333" x="20" y="44" width="120" height="4" rx="2"></rect>
                <rect id="Subtitle" fill-opacity="0.2" fill="#333333" x="20" y="30" width="41" height="4" rx="2"></rect>
            </g>
        </g>
    </g>
</svg>