<?xml version="1.0" encoding="UTF-8"?>
<svg width="260px" height="480px" viewBox="0 0 260 480" version="1.1" xmlns="http://www.w3.org/2000/svg" xmlns:xlink="http://www.w3.org/1999/xlink">
    <!-- Generator: Sketch 45 (43475) - http://www.bohemiancoding.com/sketch -->
    <title>Greenchoice</title>
    <desc>Created with Sketch.</desc>
    <defs>
        <rect id="path-1" x="1" y="1" width="258" height="478" rx="10"></rect>
        <linearGradient x1="0%" y1="100%" x2="100%" y2="0%" id="linearGradient-3">
            <stop stop-color="#004A2A" offset="0%"></stop>
            <stop stop-color="#A5CD39" offset="100%"></stop>
        </linearGradient>
    </defs>
    <g id="Page-1" stroke="none" stroke-width="1" fill="none" fill-rule="evenodd">
        <g id="Greenchoice">
            <mask id="mask-2" fill="white">
                <use xlink:href="#path-1"></use>
            </mask>
            <g id="Frame">
                <use fill="#FFFFFF" fill-rule="evenodd" xlink:href="#path-1"></use>
                <rect stroke="#F6F6F6" stroke-width="1" x="0.5" y="0.5" width="259" height="479" rx="10"></rect>
            </g>
            <g id="Top" mask="url(#mask-2)">
                <g transform="translate(15.000000, 15.000000)">
                    <rect id="Text" fill-opacity="0.5" fill="#007D46" x="191" y="19" width="39" height="4" rx="2"></rect>
                    <g id="Logo" stroke-width="1" fill="none">
                        <path d="M3.47048904,21.3136594 C2.56845132,21.3231979 1.70320565,20.9565685 1.08263069,20.301855 C0.449367036,19.6857622 0.094897303,18.8379583 0.101180438,17.9544688 L0.101180438,10.2698145 C0.0910253994,9.36765507 0.457755131,8.50217291 1.11298482,7.88195616 C1.73861503,7.24123664 2.6003891,6.88628087 3.49578415,6.9005059 C4.39655762,6.88990908 5.26064698,7.25682601 5.87858347,7.91231029 C6.50127253,8.5372627 6.84437537,9.38771972 6.8296796,10.2698145 L6.8296796,11.8785835 L4.62900506,11.8785835 L4.62900506,10.2242833 C4.62900506,9.5481303 4.08087476,9 3.40472175,9 C3.08040031,8.99404877 2.76843873,9.12433861 2.54468803,9.35919056 C2.31347472,9.58710477 2.18552744,9.8996617 2.19055649,10.2242833 L2.19055649,17.9291737 C2.18920457,18.2516029 2.31669101,18.5612167 2.54468488,18.7892106 C2.77267876,19.0172045 3.08229256,19.1446908 3.40472175,19.143339 C3.72923182,19.1477784 4.04156643,19.0199222 4.2698145,18.7892074 C4.50388163,18.5670158 4.63415664,18.2569246 4.62900506,17.9342327 L4.62900506,15.1770658 L3.45025295,15.1770658 L3.45025295,13.0320405 L6.8296796,13.0320405 L6.8296796,17.9544688 C6.84027641,18.8552422 6.47335949,19.7193317 5.81787521,20.3372681 C5.19415915,20.9740633 4.33645781,21.3270193 3.44519393,21.3136594 L3.47048904,21.3136594 Z M11.3220911,7.05733558 C12.5059022,7.05733558 13.3743676,7.38279933 13.9274874,8.03372681 C14.450952,8.71351873 14.7098208,9.56023516 14.6559865,10.4165261 L14.6559865,12.4401349 C14.66941,13.409092 14.2547653,14.3346383 13.5227656,14.9696459 L15.0961214,21.1163575 L12.7993255,21.1163575 L11.5143339,15.8296796 L10.0978078,15.8296796 L10.0978078,21.1315346 L7.97301855,21.1315346 L7.97301855,7.05733558 L11.3220911,7.05733558 Z M12.5919056,10.4519393 C12.6413081,10.1163403 12.5298007,9.77706908 12.2909363,9.53621416 C12.0520719,9.29535924 11.7137377,9.18104009 11.3777403,9.22765599 L10.0978078,9.22765599 L10.0978078,13.7352445 L11.3777403,13.7352445 C11.7020618,13.7411958 12.0140233,13.6109059 12.237774,13.376054 C12.4689873,13.1481398 12.5969346,12.8355829 12.5919056,12.5109612 L12.5919056,10.4519393 Z" id="Shape" fill="#004A2A" fill-rule="nonzero"></path>
                        <polygon id="Shape" fill="#004A2A" fill-rule="nonzero" points="15.7993255 21.1315346 15.7993255 7.04721754 21.8448567 7.04721754 21.8448567 9.17706577 17.9241147 9.17706577 17.9241147 13.0219224 20.7875211 13.0219224 20.7875211 15.1568297 17.9241147 15.1568297 17.9241147 18.9966273 21.8448567 18.9966273 21.8448567 21.1315346"></polygon>
                        <polygon id="Shape" fill="#004A2A" fill-rule="nonzero" points="22.7453626 21.1315346 22.7453626 7.04721754 28.7908938 7.04721754 28.7908938 9.17706577 24.8701518 9.17706577 24.8701518 13.0219224 27.7335582 13.0219224 27.7335582 15.1568297 24.8701518 15.1568297 24.8701518 18.9966273 28.7908938 18.9966273 28.7908938 21.1315346"></polygon>
                        <polygon id="Shape" fill="#004A2A" fill-rule="nonzero" points="32.074199 7.04721754 34.8920742 16.5126476 34.8920742 7.04721754 37.0168634 7.04721754 37.0168634 21.1315346 34.7352445 21.1315346 31.8161889 12.1112985 31.8161889 21.1315346 29.6913997 21.1315346 29.6913997 7.04721754"></polygon>
                        <path d="M4.45699831,41.3473862 C3.29719861,41.3679867 2.18042684,40.9084626 1.37099494,40.0775717 C0.540645676,39.2719471 0.0809617782,38.1584499 0.101180438,37.0016863 L0.101180438,27.0708263 C0.0813960348,25.9091704 0.544963946,24.791477 1.38111298,23.9848229 C2.18846182,23.1570193 3.3008084,22.6978105 4.45699831,22.7150084 C5.61749117,22.6935606 6.73426006,23.1575056 7.53794266,23.994941 C8.36416306,24.8050461 8.82141995,25.9189238 8.80269815,27.0758853 L8.80269815,29.1551433 L5.9544688,29.1551433 L5.9544688,27.010118 C5.95169175,26.1367425 5.24437053,25.4294213 4.37099494,25.4266442 C3.95162766,25.4213431 3.54876115,25.5898146 3.25801012,25.8920742 C2.95817502,26.1857671 2.79334676,26.590512 2.80269815,27.010118 L2.80269815,36.9763912 C2.80134854,37.3927417 2.96614591,37.7924288 3.26055168,38.0868345 C3.55495744,38.3812402 3.9546445,38.5460377 4.37099494,38.544688 C4.7906009,38.5540394 5.19534587,38.3892111 5.48903879,38.0893761 C5.79129836,37.7986251 5.95976981,37.3957585 5.9544688,36.9763912 L5.9544688,34.4468803 L8.80269815,34.4468803 L8.80269815,36.9763912 C8.82352789,38.1367666 8.35968158,39.2532978 7.5227656,40.0573356 C6.71733036,40.8812155 5.60905619,41.3384244 4.45699831,41.3220911" id="Shape" fill="#004A2A" fill-rule="nonzero"></path>
                        <polygon id="Shape" fill="#004A2A" fill-rule="nonzero" points="12.8195616 33.4047218 12.8195616 41.1146712 10.0725126 41.1146712 10.0725126 22.9173693 12.8195616 22.9173693 12.8195616 30.6424958 16.1281619 30.6424958 16.1281619 22.9173693 18.8752108 22.9173693 18.8752108 41.1146712 16.1281619 41.1146712 16.1281619 33.4047218"></polygon>
                        <path d="M24.8094435,22.6846543 C25.9650899,22.6833097 27.0737906,23.1417932 27.8909566,23.9589591 C28.7081225,24.7761251 29.166606,25.8848257 29.1652614,27.0404722 L29.1652614,36.9763912 C29.1639571,38.7378036 28.1019376,40.325063 26.4742545,40.9982815 C24.8465715,41.6715001 22.9736351,41.2981545 21.7284992,40.0522766 C20.9035628,39.2433887 20.4464149,38.1316051 20.4637437,36.9763912 L20.4637437,27.0404722 C20.4624011,25.886579 20.9194963,24.779413 21.7344734,23.9625384 C22.5494503,23.1456639 23.6555503,22.6859952 24.8094435,22.6846543 L24.8094435,22.6846543 Z M26.3271501,26.9848229 C26.3284997,26.5684725 26.1637023,26.1687854 25.8692966,25.8743797 C25.5748908,25.5799739 25.1752037,25.4151765 24.7588533,25.4165261 C24.3392473,25.4071747 23.9345024,25.572003 23.6408094,25.8718381 C23.3385499,26.1625891 23.1700784,26.5654556 23.1753794,26.9848229 L23.1753794,36.93086 C23.1700784,37.3502274 23.3385499,37.7530939 23.6408094,38.0438449 C23.9336371,38.3455385 24.3384932,38.5122439 24.7588533,38.5042159 C25.1752037,38.5055655 25.5748908,38.3407681 25.8692966,38.0463623 C26.1637023,37.7519566 26.3284997,37.3522695 26.3271501,36.9359191 L26.3271501,26.9848229 Z" id="Shape" fill="#004A2A" fill-rule="nonzero"></path>
                        <rect id="Rectangle-path" fill="#004A2A" fill-rule="nonzero" x="30.7487352" y="22.9173693" width="2.7470489" height="18.1973019"></rect>
                        <path d="M39.4401349,41.3473862 C38.2854208,41.3514245 37.1766893,40.8951965 36.3592293,40.0796353 C35.5417693,39.2640742 35.0829641,38.1564067 35.084317,37.0016863 L35.084317,27.0708263 C35.084317,24.6679686 37.0322181,22.7200675 39.4350759,22.7200675 C41.8379336,22.7200675 43.7858347,24.6679686 43.7858347,27.0708263 L43.7858347,29.1500843 L40.9376054,29.1500843 L40.9376054,27.010118 C40.9348283,26.1367425 40.2275071,25.4294213 39.3541315,25.4266442 C38.9347642,25.4213431 38.5318977,25.5898146 38.2411467,25.8920742 C37.9413116,26.1857671 37.7764833,26.590512 37.7858347,27.010118 L37.7858347,36.9763912 C37.7844851,37.3927417 37.9492825,37.7924288 38.2436883,38.0868345 C38.538094,38.3812402 38.9377811,38.5460377 39.3541315,38.544688 C39.7737375,38.5540394 40.1784825,38.3892111 40.4721754,38.0893761 C40.7744349,37.7986251 40.9429064,37.3957585 40.9376054,36.9763912 L40.9376054,34.4468803 L43.7858347,34.4468803 L43.7858347,36.9763912 C43.7871775,38.128477 43.3304542,39.2338361 42.5162805,40.0489587 C41.7021069,40.8640812 40.5972805,41.3220919 39.4451939,41.3220911" id="Shape" fill="#004A2A" fill-rule="nonzero"></path>
                        <polygon id="Shape" fill="#004A2A" fill-rule="nonzero" points="45.0556492 41.1146712 45.0556492 22.9021922 52.8667791 22.9021922 52.8667791 25.6644182 47.7976391 25.6644182 47.7976391 30.6273187 51.5008432 30.6273187 51.5008432 33.3895447 47.7976391 33.3895447 47.7976391 38.3524452 52.8667791 38.3524452 52.8667791 41.1146712"></polygon>
                        <path d="M38.772344,1.85160202 C38.7751235,0.830143982 39.602488,0.00277949309 40.623946,0 L58.0623946,0 C59.0838526,0.00277949309 59.9112171,0.830143982 59.9139966,1.85160202 L59.9139966,19.2900506 C59.9112171,20.3115086 59.0838526,21.1388731 58.0623946,21.1416526 L40.623946,21.1416526 C39.602488,21.1388731 38.7751235,20.3115086 38.772344,19.2900506 L38.772344,1.85160202 Z M56.3929174,3.54131535 L42.2984823,3.54131535 L42.2984823,17.6155143 L56.3929174,17.6155143 L56.3929174,3.54131535 Z" id="Shape" fill="url(#linearGradient-3)" fill-rule="nonzero"></path>
                    </g>
                </g>
            </g>
            <g id="Header" mask="url(#mask-2)">
                <g transform="translate(0.000000, 72.000000)">
                    <rect id="Background" fill="#007D46" x="0" y="0" width="260" height="166"></rect>
                    <g id="Text" stroke-width="1" fill="none" transform="translate(15.000000, 20.000000)">
                        <rect id="Title" fill="#FFFFFF" x="0" y="0" width="133" height="4" rx="2"></rect>
                        <rect id="Subtitle" fill-opacity="0.5" fill="#FFFFFF" x="0" y="14" width="74" height="4" rx="2"></rect>
                        <rect id="Subtitle" fill-opacity="0.5" fill="#FFFFFF" x="81" y="14" width="96" height="4" rx="2"></rect>
                    </g>
                    <g id="Form" stroke-width="1" fill="none" transform="translate(15.000000, 126.000000)">
                        <rect id="Input" fill="#FFFFFF" x="0" y="0" width="60" height="20" rx="3"></rect>
                        <rect id="Input" fill="#FFFFFF" x="70" y="0" width="60" height="20" rx="3"></rect>
                        <g id="Button" transform="translate(140.000000, 0.000000)">
                            <rect id="Background" fill="#005E31" x="0" y="0" width="90" height="20" rx="3"></rect>
                            <rect id="Text" fill-opacity="0.34" fill="#FFFFFF" x="30" y="8" width="30" height="4" rx="2"></rect>
                        </g>
                    </g>
                    <rect id="Image" fill-opacity="0.1" fill="#FFFFFF" x="15" y="53" width="230" height="58" rx="3"></rect>
                </g>
            </g>
            <g id="Content" mask="url(#mask-2)">
                <g transform="translate(0.000000, 238.000000)">
                    <rect id="Background" fill="#CDEBFE" x="0" y="0" width="260" height="242"></rect>
                    <g id="Item" stroke-width="1" fill="none" transform="translate(15.000000, 16.000000)">
                        <rect id="Background" fill="#FFFFFF" x="0" y="0" width="230" height="238" rx="3"></rect>
                        <g id="Content" transform="translate(0.000000, 30.000000)">
                            <g id="Button" transform="translate(22.000000, 157.000000)">
                                <rect id="Background" fill="#FFC000" x="0" y="0" width="190" height="30" rx="3"></rect>
                                <rect id="Text" fill-opacity="0.34" fill="#333333" x="60" y="13" width="71" height="4" rx="2"></rect>
                            </g>
                            <g id="Price" transform="translate(61.000000, 117.000000)" fill="#DC8100">
                                <rect x="0" y="0" width="56" height="6" rx="2"></rect>
                                <rect id="Label" fill-opacity="0.5" x="71" y="1" width="38" height="4" rx="2"></rect>
                            </g>
                            <path d="M0,85.5 L230,85.5" id="Seperator" stroke="#EEEEEE" stroke-linecap="square"></path>
                            <g id="Intro" transform="translate(47.000000, 0.000000)">
                                <path d="M59,19.5555358 L60.6950385,20.6647622 L64.2308112,15.412445 C68.8597565,16.982688 72.0956564,17.0940549 73.9385109,15.7465457 C76.7027928,13.725282 78.191858,8.07374024 79.6845581,6.33750713 C80.6796914,5.18001839 82.1181721,3.72790716 84,1.98117345 C77.9258093,-0.23122129 72.651986,-0.590664758 68.1785303,0.902843046 C63.7050746,2.39635085 61.2105773,6.07317482 60.6950385,11.933315 C63.4697199,9.1225882 65.9642172,7.25731893 68.1785303,6.33750713 C70.3928434,5.41769533 72.7691081,4.95778943 75.3073242,4.95778943 C70.5414673,7.18573313 66.9787363,9.39721917 64.6191313,11.5922475 C62.2595263,13.7872759 60.3864825,16.4417053 59,19.5555358 Z" id="Icon" fill="#95CCF2"></path>
                                <rect id="Title" fill="#007D46" x="0" y="34" width="137" height="6" rx="2"></rect>
                                <rect id="Text" fill-opacity="0.2" fill="#333333" x="20" y="50" width="97" height="4" rx="2"></rect>
                            </g>
                        </g>
                    </g>
                </g>
            </g>
        </g>
    </g>
</svg>