<svg xmlns="http://www.w3.org/2000/svg" xmlns:xlink="http://www.w3.org/1999/xlink" width="260" height="480" viewBox="0 0 260 480">
  <defs>
    <rect id="openiban-a" width="258" height="478" x="1" y="1" rx="10"/>
  </defs>
  <g fill="none" fill-rule="evenodd">
    <mask id="openiban-b" fill="#fff">
      <use xlink:href="#openiban-a"/>
    </mask>
    <rect width="259" height="479" x=".5" y=".5" stroke="#F6F6F6" rx="10"/>
    <g mask="url(#openiban-b)">
      <rect width="260" height="40" fill="#00BD83"/>
      <rect width="260" height="4" y="40" fill="#00875B"/>
      <path fill="#FFF" fill-rule="nonzero" d="M23.8115234,21.3447266 C23.8115234,22.0921261 23.7169606,22.760902 23.527832,23.3510742 C23.3387035,23.9412464 23.0709653,24.4436828 22.7246094,24.8583984 C22.3782535,25.2731141 21.9589868,25.5898427 21.4667969,25.8085938 C20.9746069,26.0273448 20.4254588,26.1367188 19.8193359,26.1367188 C19.2314424,26.1367188 18.6914087,26.0273448 18.1992188,25.8085938 C17.7070288,25.5898427 17.2832049,25.2731141 16.9277344,24.8583984 C16.5722638,24.4436828 16.2965505,23.9412464 16.1005859,23.3510742 C15.9046214,22.760902 15.8066406,22.0921261 15.8066406,21.3447266 L15.8066406,20.7158203 C15.8066406,19.9729781 15.9046214,19.3042022 16.1005859,18.7094727 C16.2965505,18.1147431 16.5699852,17.6100281 16.9208984,17.1953125 C17.2718117,16.7805969 17.6933569,16.462729 18.1855469,16.2416992 C18.6777368,16.0206695 19.2177705,15.9101562 19.8056641,15.9101562 C20.4117869,15.9101562 20.9620744,16.0206695 21.456543,16.2416992 C21.9510116,16.462729 22.3725569,16.7805969 22.7211914,17.1953125 C23.069826,17.6100281 23.3387035,18.1147431 23.527832,18.7094727 C23.7169606,19.3042022 23.8115234,19.9729781 23.8115234,20.7158203 L23.8115234,21.3447266 Z M22.5058594,20.7021484 C22.5058594,20.1096976 22.4454759,19.5856143 22.324707,19.1298828 C22.2039382,18.6741514 22.0273449,18.2913427 21.7949219,17.9814453 C21.5624988,17.6715479 21.2788103,17.4368498 20.9438477,17.2773438 C20.608885,17.1178377 20.2294943,17.0380859 19.8056641,17.0380859 C19.4000631,17.0380859 19.0309261,17.1178377 18.6982422,17.2773438 C18.3655582,17.4368498 18.0818697,17.6715479 17.847168,17.9814453 C17.6124663,18.2913427 17.4313157,18.6741514 17.3037109,19.1298828 C17.1761061,19.5856143 17.1123047,20.1096976 17.1123047,20.7021484 L17.1123047,21.3447266 C17.1123047,21.9417348 17.1772454,22.4680967 17.3071289,22.9238281 C17.4370124,23.3795596 17.6204415,23.7635076 17.8574219,24.0756836 C18.0944022,24.3878596 18.3792301,24.6236971 18.7119141,24.7832031 C19.044598,24.9427091 19.413735,25.0224609 19.8193359,25.0224609 C20.2477235,25.0224609 20.6282535,24.9427091 20.9609375,24.7832031 C21.2936215,24.6236971 21.5750314,24.3878596 21.8051758,24.0756836 C22.0353202,23.7635076 22.2096348,23.3795596 22.328125,22.9238281 C22.4466152,22.4680967 22.5058594,21.9417348 22.5058594,21.3447266 L22.5058594,20.7021484 Z M31.8300781,22.3837891 C31.8300781,22.9261095 31.7662767,23.4262672 31.6386719,23.8842773 C31.5110671,24.3422874 31.3253593,24.7387679 31.081543,25.0737305 C30.8377266,25.4086931 30.5380877,25.6695954 30.1826172,25.8564453 C29.8271467,26.0432952 29.4215518,26.1367188 28.9658203,26.1367188 C28.5009742,26.1367188 28.09424,26.0638028 27.7456055,25.9179688 C27.3969709,25.7721347 27.097332,25.5602227 26.8466797,25.2822266 L26.8466797,28.84375 L25.5820312,28.84375 L25.5820312,18.6035156 L26.7373047,18.6035156 L26.7988281,19.4238281 C27.0494804,19.1139307 27.3525373,18.8769539 27.7080078,18.7128906 C28.0634783,18.5488273 28.4759091,18.4667969 28.9453125,18.4667969 C29.4101586,18.4667969 29.82145,18.5579418 30.1791992,18.7402344 C30.5369484,18.922527 30.838866,19.178872 31.0849609,19.5092773 C31.3310559,19.8396826 31.5167637,20.2361631 31.6420898,20.6987305 C31.767416,21.1612979 31.8300781,21.6751274 31.8300781,22.2402344 L31.8300781,22.3837891 Z M30.5654297,22.2402344 C30.5654297,21.8710919 30.5266931,21.5236019 30.4492188,21.1977539 C30.3717444,20.8719059 30.2509774,20.5859387 30.0869141,20.3398438 C29.9228507,20.0937488 29.715496,19.8989265 29.4648438,19.7553711 C29.2141915,19.6118157 28.9156918,19.5400391 28.5693359,19.5400391 C28.3551422,19.5400391 28.1603199,19.5651039 27.9848633,19.6152344 C27.8094067,19.6653648 27.6510424,19.7360021 27.5097656,19.8271484 C27.3684889,19.9182947 27.2431646,20.0265293 27.1337891,20.1518555 C27.0244135,20.2771816 26.9287113,20.4127597 26.8466797,20.5585938 L26.8466797,24.0927734 C26.9287113,24.2386075 27.0244135,24.3741856 27.1337891,24.4995117 C27.2431646,24.6248379 27.3684889,24.7319331 27.5097656,24.8208008 C27.6510424,24.9096684 27.810546,24.9791664 27.9882812,25.0292969 C28.1660165,25.0794273 28.3642567,25.1044922 28.5830078,25.1044922 C28.9248064,25.1044922 29.2198881,25.0315763 29.4682617,24.8857422 C29.7166354,24.7399081 29.9228507,24.5439465 30.0869141,24.2978516 C30.2509774,24.0517566 30.3717444,23.7635108 30.4492188,23.4331055 C30.5266931,23.1027002 30.5654297,22.7529315 30.5654297,22.3837891 L30.5654297,22.2402344 Z M36.5058594,26.1367188 C35.9908828,26.1367188 35.5249044,26.0478525 35.1079102,25.8701172 C34.6909159,25.6923819 34.3343114,25.4451513 34.0380859,25.128418 C33.7418605,24.8116846 33.5139982,24.4345725 33.3544922,23.9970703 C33.1949862,23.5595681 33.1152344,23.0810573 33.1152344,22.5615234 L33.1152344,22.2744141 C33.1152344,21.6728486 33.20524,21.1350935 33.3852539,20.6611328 C33.5652678,20.1871721 33.8056626,19.7884131 34.1064453,19.4648438 C34.4072281,19.1412744 34.7513001,18.8940438 35.1386719,18.7231445 C35.5260436,18.5522452 35.9293599,18.4667969 36.3486328,18.4667969 C36.8772813,18.4667969 37.3330059,18.5590811 37.7158203,18.7436523 C38.0986347,18.9282236 38.414224,19.18229 38.6625977,19.5058594 C38.9109713,19.8294287 39.0944004,20.2122374 39.2128906,20.6542969 C39.3313808,21.0963564 39.390625,21.5771458 39.390625,22.0966797 L39.390625,22.6640625 L34.3798828,22.6640625 C34.3889974,23.0058611 34.4448237,23.3248683 34.5473633,23.6210938 C34.6499029,23.9173192 34.7957347,24.1748036 34.9848633,24.3935547 C35.1739918,24.6123058 35.4018541,24.7854811 35.668457,24.9130859 C35.9350599,25.0406907 36.2369775,25.1044922 36.5742188,25.1044922 C37.0208356,25.1044922 37.399087,25.0133473 37.7089844,24.8310547 C38.0188818,24.6487621 38.2900379,24.4072281 38.5224609,24.1064453 L39.2949219,24.7080078 C39.1764317,24.8903004 39.0328784,25.0668937 38.8642578,25.237793 C38.6956372,25.4086923 38.4985363,25.56136 38.2729492,25.6958008 C38.0473622,25.8302416 37.7887384,25.9373368 37.4970703,26.0170898 C37.2054022,26.0968428 36.8750018,26.1367188 36.5058594,26.1367188 Z M36.3486328,19.5058594 C36.0934232,19.5058594 35.858725,19.5525711 35.6445312,19.6459961 C35.4303375,19.739421 35.2389331,19.8749991 35.0703125,20.0527344 C34.9016919,20.2304696 34.7615565,20.4514961 34.6499023,20.7158203 C34.5382481,20.9801446 34.4619143,21.2832014 34.4208984,21.625 L38.1259766,21.625 L38.1259766,21.5292969 C38.1123046,21.2832019 38.0724287,21.0393892 38.0063477,20.7978516 C37.9402666,20.5563139 37.8377286,20.3398447 37.6987305,20.1484375 C37.5597324,19.9570303 37.3808605,19.8020839 37.1621094,19.6835938 C36.9433583,19.5651036 36.6722021,19.5058594 36.3486328,19.5058594 Z M42.0498047,18.6035156 L42.0908203,19.5332031 C42.3551446,19.2005192 42.6741518,18.9396168 43.0478516,18.7504883 C43.4215513,18.5613597 43.840818,18.4667969 44.3056641,18.4667969 C44.6656919,18.4667969 44.991535,18.5157873 45.2832031,18.6137695 C45.5748713,18.7117518 45.8232412,18.8689768 46.0283203,19.0854492 C46.2333995,19.3019217 46.3917638,19.5799137 46.503418,19.9194336 C46.6150722,20.2589535 46.6708984,20.670245 46.6708984,21.1533203 L46.6708984,26 L45.40625,26 L45.40625,21.1396484 C45.40625,20.8525376 45.3743493,20.6075856 45.3105469,20.4047852 C45.2467445,20.2019847 45.1521816,20.0367845 45.0268555,19.9091797 C44.9015293,19.7815749 44.746583,19.6881513 44.5620117,19.6289062 C44.3774405,19.5696612 44.1643892,19.5400391 43.9228516,19.5400391 C43.5126933,19.5400391 43.1526708,19.649413 42.8427734,19.8681641 C42.5328761,20.0869152 42.291342,20.3740217 42.1181641,20.7294922 L42.1181641,26 L40.8535156,26 L40.8535156,18.6035156 L42.0498047,18.6035156 Z M50.1845703,26 L48.8720703,26 L48.8720703,16.046875 L50.1845703,16.046875 L50.1845703,26 Z M52.5839844,26 L52.5839844,16.046875 L55.8378906,16.046875 C56.3483098,16.046875 56.8040345,16.098144 57.2050781,16.2006836 C57.6061218,16.3032232 57.9467759,16.4627268 58.2270508,16.6791992 C58.5073256,16.8956717 58.7215162,17.1702457 58.8696289,17.5029297 C59.0177416,17.8356136 59.0917969,18.2343727 59.0917969,18.6992188 C59.0917969,19.1640648 58.9596367,19.5753563 58.6953125,19.9331055 C58.4309883,20.2908547 58.0709658,20.5677074 57.6152344,20.7636719 C57.8932306,20.8411462 58.1404612,20.9550774 58.3569336,21.1054688 C58.573406,21.2558601 58.7556959,21.4335927 58.9038086,21.6386719 C59.0519213,21.843751 59.1647132,22.073892 59.2421875,22.3291016 C59.3196618,22.5843112 59.3583984,22.8509101 59.3583984,23.1289062 C59.3583984,23.5937523 59.2797859,24.0050438 59.1225586,24.362793 C58.9653312,24.7205422 58.7431655,25.0213204 58.4560547,25.2651367 C58.1689439,25.508953 57.8225932,25.6923822 57.4169922,25.8154297 C57.0113912,25.9384772 56.5602238,26 56.0634766,26 L52.5839844,26 Z M53.8964844,21.3447266 L53.8964844,24.9267578 L56.0634766,24.9267578 C56.3779313,24.9267578 56.6570626,24.8846033 56.9008789,24.800293 C57.1446952,24.7159827 57.3509106,24.5974943 57.5195312,24.4448242 C57.6881519,24.2921542 57.8168941,24.1053071 57.9057617,23.8842773 C57.9946294,23.6632476 58.0390625,23.416017 58.0390625,23.1425781 C58.0390625,22.8691393 58.0026045,22.6207693 57.9296875,22.3974609 C57.8567705,22.1741525 57.7417,21.9850268 57.5844727,21.8300781 C57.4272453,21.6751294 57.2278658,21.5555017 56.9863281,21.4711914 C56.7447905,21.3868811 56.457684,21.3447266 56.125,21.3447266 L53.8964844,21.3447266 Z M53.8964844,20.2919922 L55.8789062,20.2919922 C56.1614597,20.2919922 56.4189442,20.2555342 56.6513672,20.1826172 C56.8837902,20.1097002 57.0831697,20.0048835 57.2495117,19.8681641 C57.4158537,19.7314446 57.5445959,19.5639658 57.6357422,19.3657227 C57.7268885,19.1674795 57.7724609,18.9430351 57.7724609,18.6923828 C57.7724609,18.1455051 57.6129573,17.7478854 57.2939453,17.4995117 C56.9749333,17.2511381 56.4895866,17.1269531 55.8378906,17.1269531 L53.8964844,17.1269531 L53.8964844,20.2919922 Z M66.7958984,23.4023438 L62.6259766,23.4023438 L61.6894531,26 L60.3359375,26 L64.1367188,16.046875 L65.2851562,16.046875 L69.0927734,26 L67.7460938,26 L66.7958984,23.4023438 Z M63.0224609,22.3222656 L66.40625,22.3222656 L64.7109375,17.6669922 L63.0224609,22.3222656 Z M78.0820312,26 L76.7626953,26 L71.7519531,18.3300781 L71.7519531,26 L70.4326172,26 L70.4326172,16.046875 L71.7519531,16.046875 L76.7763672,23.7509766 L76.7763672,16.046875 L78.0820312,16.046875 L78.0820312,26 Z"/>
    </g>
    <g mask="url(#openiban-b)">
      <g transform="translate(0 64)">
        <g transform="translate(0 14)">
          <polygon fill="#FFF" points="0 0 260 0 260 80 0 80"/>
          <path fill="#333" fill-opacity=".5" d="M15,38.9981014 C15,37.8945804 15.8998141,37 16.9940296,37 L173.00597,37 C174.107243,37 175,37.8867064 175,38.9981014 L175,43.0018986 C175,44.1054196 174.100186,45 173.00597,45 L16.9940296,45 C15.8927575,45 15,44.1132936 15,43.0018986 L15,38.9981014 Z"/>
          <polygon fill="#00BD83" fill-rule="nonzero" points="232.59 45.58 228.42 41.41 227 42.82 232.59 48.41 244.59 36.41 243.18 35"/>
        </g>
        <path fill="#333" fill-opacity=".1" d="M15,2 C15,0.8954305 15.8945335,0 17.0060688,0 L87.9939312,0 C89.1018524,0 90,0.887729645 90,2 L90,2 C90,3.1045695 89.1054665,4 87.9939312,4 L17.0060688,4 C15.8981476,4 15,3.11227036 15,2 L15,2 Z"/>
      </g>
    </g>
    <path fill="#333" fill-opacity=".1" d="M15,180 C15,178.895431 15.8976762,178 16.9969095,178 L66.0030905,178 C67.1059532,178 68,178.88773 68,180 L68,180 C68,181.104569 67.1023238,182 66.0030905,182 L16.9969095,182 C15.8940468,182 15,181.11227 15,180 L15,180 Z" mask="url(#openiban-b)"/>
    <g mask="url(#openiban-b)" opacity=".8">
      <g transform="translate(0 192)">
        <polygon fill="#FFF" points="0 0 260 0 260 63 0 63"/>
        <path fill="#333" fill-opacity=".2" d="M15,22 C15,20.8954305 15.887207,20 16.9923309,20 L92.0076691,20 C93.1080031,20 94,20.8877296 94,22 L94,22 C94,23.1045695 93.112793,24 92.0076691,24 L16.9923309,24 C15.8919969,24 15,23.1122704 15,22 L15,22 Z"/>
        <path fill="#333" fill-opacity=".5" d="M15,41 C15,39.8954305 15.897774,39 16.999906,39 L148.000094,39 C149.104612,39 150,39.8877296 150,41 L150,41 C150,42.1045695 149.102226,43 148.000094,43 L16.999906,43 C15.8953884,43 15,42.1122704 15,41 L15,41 Z"/>
        <polygon fill="#333" fill-opacity=".3" fill-rule="nonzero" points="108 18 107.295 18.705 110.085 21.5 104 21.5 104 22.5 110.085 22.5 107.295 25.295 108 26 112 22"/>
      </g>
    </g>
    <g mask="url(#openiban-b)" opacity=".8">
      <g transform="translate(0 394)">
        <polygon fill="#FFF" points="0 0 260 0 260 63 0 63"/>
        <path fill="#333" fill-opacity=".2" d="M15,22 C15,20.8954305 15.8978162,20 17.0007992,20 L82.9992008,20 C84.1042117,20 85,20.8877296 85,22 L85,22 C85,23.1045695 84.1021838,24 82.9992008,24 L17.0007992,24 C15.8957883,24 15,23.1122704 15,22 L15,22 Z"/>
        <path fill="#333" fill-opacity=".5" d="M15,41 C15,39.8954305 15.8926447,39 17.0003929,39 L141.999607,39 C143.104394,39 144,39.8877296 144,41 L144,41 C144,42.1045695 143.107355,43 141.999607,43 L17.0003929,43 C15.8956064,43 15,42.1122704 15,41 L15,41 Z"/>
        <polygon fill="#333" fill-opacity=".3" fill-rule="nonzero" points="99 18 98.295 18.705 101.085 21.5 95 21.5 95 22.5 101.085 22.5 98.295 25.295 99 26 103 22"/>
      </g>
    </g>
    <g mask="url(#openiban-b)">
      <g transform="translate(0 259)">
        <polygon fill="#FFF" points="0 0 260 0 260 132 0 132"/>
        <polygon fill="#333" fill-opacity=".2" fill-rule="nonzero" points="234.822 24.323 237.5 21.651 240.178 24.323 241 23.5 237.5 20 234 23.5"/>
        <polygon fill="#00BD83" points="0 0 3 0 3 132 0 132"/>
        <path fill="#333" fill-opacity=".5" d="M15,67 C15,65.8954305 15.8969164,65 17.0075171,65 L132.992483,65 C134.101204,65 135,65.8877296 135,67 L135,67 C135,68.1045695 134.103084,69 132.992483,69 L17.0075171,69 C15.898796,69 15,68.1122704 15,67 L15,67 Z"/>
        <path fill="#333" fill-opacity=".2" d="M15,24 C15,22.8954305 15.8894081,22 17.0014725,22 L99.9985275,22 C101.10391,22 102,22.8877296 102,24 L102,24 C102,25.1045695 101.110592,26 99.9985275,26 L17.0014725,26 C15.8960898,26 15,25.1122704 15,24 L15,24 Z"/>
        <path fill="#333" fill-opacity=".1" d="M15,53 C15,51.8954305 15.8998975,51 16.9912443,51 L41.0087557,51 C42.1084896,51 43,51.8877296 43,53 L43,53 C43,54.1045695 42.1001025,55 41.0087557,55 L16.9912443,55 C15.8915104,55 15,54.1122704 15,53 L15,53 Z"/>
        <path fill="#333" fill-opacity=".5" d="M15,110 C15,108.895431 15.8922172,108 17.0020903,108 L66.9979097,108 C68.1036337,108 69,108.88773 69,110 L69,110 C69,111.104569 68.1077828,112 66.9979097,112 L17.0020903,112 C15.8963663,112 15,111.11227 15,110 L15,110 Z"/>
        <path fill="#333" fill-opacity=".1" d="M15,96 C15,94.8954305 15.8909254,94 16.9974219,94 L32.0025781,94 C33.1057238,94 34,94.8877296 34,96 L34,96 C34,97.1045695 33.1090746,98 32.0025781,98 L16.9974219,98 C15.8942762,98 15,97.1122704 15,96 L15,96 Z"/>
        <polygon fill="#333" fill-opacity=".3" fill-rule="nonzero" points="116 20 115.295 20.705 118.085 23.5 112 23.5 112 24.5 118.085 24.5 115.295 27.295 116 28 120 24"/>
      </g>
    </g>
  </g>
</svg>
