<?xml version="1.0" encoding="UTF-8"?>
<svg width="760px" height="480px" viewBox="0 0 760 480" version="1.1" xmlns="http://www.w3.org/2000/svg" xmlns:xlink="http://www.w3.org/1999/xlink">
    <!-- Generator: Sketch 45 (43475) - http://www.bohemiancoding.com/sketch -->
    <title>Trials Report</title>
    <desc>Created with Sketch.</desc>
    <defs>
        <rect id="path-1" x="1" y="1" width="758" height="478" rx="10"></rect>
        <filter x="0.0%" y="0.0%" width="100.0%" height="100.0%" filterUnits="objectBoundingBox" id="filter-3">
            <feGaussianBlur stdDeviation="0" in="SourceGraphic"></feGaussianBlur>
        </filter>
        <rect id="path-4" x="0" y="0" width="169" height="460" rx="5"></rect>
        <circle id="path-6" cx="19" cy="11" r="3"></circle>
        <circle id="path-7" cx="35" cy="6" r="3"></circle>
        <circle id="path-8" cx="91" cy="6" r="3"></circle>
        <circle id="path-9" cx="99" cy="11" r="3"></circle>
        <circle id="path-10" cx="67" cy="13" r="3"></circle>
        <rect id="path-11" x="0" y="0" width="169" height="460" rx="5"></rect>
        <circle id="path-13" cx="3" cy="3" r="3"></circle>
        <circle id="path-14" cx="3" cy="3" r="3"></circle>
        <circle id="path-15" cx="3" cy="3" r="3"></circle>
        <circle id="path-16" cx="3" cy="3" r="3"></circle>
        <circle id="path-17" cx="3" cy="3" r="3"></circle>
        <circle id="path-18" cx="3" cy="3" r="3"></circle>
        <circle id="path-19" cx="99" cy="17" r="3"></circle>
        <rect id="path-20" x="0" y="0" width="169" height="460" rx="5"></rect>
        <circle id="path-22" cx="3" cy="3" r="3"></circle>
        <circle id="path-23" cx="3" cy="3" r="3"></circle>
        <circle id="path-24" cx="3" cy="3" r="3"></circle>
    </defs>
    <g id="Page-1" stroke="none" stroke-width="1" fill="none" fill-rule="evenodd">
        <g id="Trials-Report">
            <mask id="mask-2" fill="white">
                <use xlink:href="#path-1"></use>
            </mask>
            <g id="Frame">
                <use fill="#ECEBEB" fill-rule="evenodd" xlink:href="#path-1"></use>
                <rect stroke="#DDDDDD" stroke-width="1" x="0.5" y="0.5" width="759" height="479" rx="10"></rect>
            </g>
            <g id="Aside" mask="url(#mask-2)">
                <rect id="Background" fill="#323232" x="0" y="0" width="172" height="480"></rect>
                <g id="Footer" transform="translate(0.000000, 450.000000)">
                    <path d="M0,1.5 L172,1.5" id="Seperator" stroke="#444444" stroke-linecap="square"></path>
                    <rect id="Line" fill="#666666" x="11" y="14" width="60" height="4" rx="2"></rect>
                    <rect id="Line" fill="#666666" x="122" y="14" width="40" height="4" rx="2"></rect>
                </g>
                <g id="Header">
                    <rect id="Map" fill="#0091EA" filter="url(#filter-3)" x="0" y="0" width="172" height="180"></rect>
                    <g id="Inputs" transform="translate(0.000000, 73.000000)">
                        <g id="Input">
                            <rect fill="#FFFFFF" x="0" y="0" width="172" height="26"></rect>
                            <rect id="Title" fill-opacity="0.5" fill="#333333" x="10" y="11" width="50" height="4" rx="2"></rect>
                            <polygon id="Submit" fill="#000000" fill-rule="nonzero" points="158 15.3025504 160.725749 12.5708501 158 9.83914977 158.83915 9 162.41 12.5708501 158.83915 16.1417002"></polygon>
                        </g>
                        <path d="M0,26.5 L172,26.5" id="Seperator" stroke="#EEEEEE" stroke-linecap="square"></path>
                        <g id="Input" transform="translate(0.000000, 27.000000)">
                            <rect fill="#FFFFFF" x="0" y="0" width="172" height="26"></rect>
                            <rect id="Title" fill-opacity="0.2" fill="#333333" x="10" y="11" width="75" height="4" rx="2"></rect>
                            <polygon id="Submit" fill="#000000" fill-rule="nonzero" points="158 15.3025504 160.725749 12.5708501 158 9.83914977 158.83915 9 162.41 12.5708501 158.83915 16.1417002"></polygon>
                        </g>
                        <path d="M0,53.5 L172,53.5" id="Seperator" stroke="#EEEEEE" stroke-linecap="square"></path>
                        <g id="Input" transform="translate(0.000000, 54.000000)">
                            <rect fill="#FFFFFF" x="0" y="0" width="172" height="26"></rect>
                            <rect id="Title" fill-opacity="0.2" fill="#333333" x="10" y="11" width="60" height="4" rx="2"></rect>
                            <polygon id="Submit" fill="#000000" fill-rule="nonzero" points="158 15.3025504 160.725749 12.5708501 158 9.83914977 158.83915 9 162.41 12.5708501 158.83915 16.1417002"></polygon>
                        </g>
                    </g>
                    <g id="Title" transform="translate(11.000000, 49.000000)">
                        <path d="M0.155273438,11 L0.155273438,1.046875 L2.96484375,1.046875 C3.62109703,1.046875 4.21809627,1.15624891 4.75585938,1.375 C5.29362248,1.59375109 5.75504365,1.90592245 6.14013672,2.31152344 C6.52522979,2.71712442 6.82372941,3.209307 7.03564453,3.78808594 C7.24755965,4.36686487 7.35351562,5.01627244 7.35351562,5.73632812 L7.35351562,6.32421875 C7.35351562,7.04427443 7.24755965,7.693682 7.03564453,8.27246094 C6.82372941,8.85123987 6.52295117,9.34228314 6.13330078,9.74560547 C5.7436504,10.1489278 5.27083611,10.4588205 4.71484375,10.675293 C4.15885139,10.8917654 3.53678729,11 2.84863281,11 L0.155273438,11 Z M1.46777344,2.12695312 L1.46777344,9.92675781 L2.84863281,9.92675781 C3.37728129,9.92675781 3.84212039,9.84130945 4.24316406,9.67041016 C4.64420773,9.49951086 4.97916532,9.25683751 5.24804688,8.94238281 C5.51692843,8.62792812 5.71858657,8.24967669 5.85302734,7.80761719 C5.98746812,7.36555769 6.0546875,6.87109648 6.0546875,6.32421875 L6.0546875,5.71582031 C6.0546875,5.14615601 5.98632881,4.63916238 5.84960938,4.19482422 C5.71288994,3.75048606 5.51237111,3.37451326 5.24804688,3.06689453 C4.98372264,2.75927581 4.66015816,2.52571694 4.27734375,2.36621094 C3.89452934,2.20670493 3.45703371,2.12695312 2.96484375,2.12695312 L1.46777344,2.12695312 Z M12.0320313,11.1367188 C11.5170547,11.1367188 11.0510763,11.0478525 10.634082,10.8701172 C10.2170878,10.6923819 9.86048325,10.4451513 9.56425782,10.128418 C9.26803238,9.81168461 9.04017007,9.4345725 8.88066407,8.99707031 C8.72115806,8.55956812 8.64140625,8.08105729 8.64140625,7.56152344 L8.64140625,7.27441406 C8.64140625,6.67284855 8.73141186,6.13509352 8.91142578,5.66113281 C9.09143971,5.18717211 9.33183444,4.78841308 9.63261719,4.46484375 C9.93339994,4.14127442 10.277472,3.89404382 10.6648438,3.72314453 C11.0522155,3.55224524 11.4555318,3.46679688 11.8748047,3.46679688 C12.4034532,3.46679688 12.8591778,3.55908111 13.2419922,3.74365234 C13.6248066,3.92822358 13.9403959,4.18229005 14.1887695,4.50585938 C14.4371432,4.8294287 14.6205723,5.21223737 14.7390625,5.65429688 C14.8575527,6.09635638 14.9167969,6.57714584 14.9167969,7.09667969 L14.9167969,7.6640625 L9.90605469,7.6640625 C9.91516932,8.00586108 9.97099558,8.32486831 10.0735352,8.62109375 C10.1760747,8.91731919 10.3219066,9.17480359 10.5110352,9.39355469 C10.7001637,9.61230578 10.928026,9.78548113 11.1946289,9.91308594 C11.4612318,10.0406907 11.7631494,10.1044922 12.1003906,10.1044922 C12.5470074,10.1044922 12.9252589,10.0133473 13.2351563,9.83105469 C13.5450536,9.64876211 13.8162098,9.40722807 14.0486328,9.10644531 L14.8210938,9.70800781 C14.7026036,9.89030039 14.5590503,10.0668937 14.3904297,10.237793 C14.2218091,10.4086923 14.0247082,10.56136 13.7991211,10.6958008 C13.573534,10.8302416 13.3149103,10.9373368 13.0232422,11.0170898 C12.7315741,11.0968428 12.4011737,11.1367188 12.0320313,11.1367188 Z M11.8748047,4.50585938 C11.6195951,4.50585938 11.3848969,4.55257115 11.1707031,4.64599609 C10.9565093,4.73942104 10.765105,4.87499911 10.5964844,5.05273438 C10.4278637,5.23046964 10.2877284,5.45149607 10.1760742,5.71582031 C10.06442,5.98014455 9.98808615,6.28320142 9.94707032,6.625 L13.6521484,6.625 L13.6521484,6.52929688 C13.6384765,6.28320189 13.5986006,6.03938923 13.5325195,5.79785156 C13.4664385,5.5563139 13.3639004,5.33984471 13.2249023,5.1484375 C13.0859043,4.95703029 12.9070323,4.80208393 12.6882813,4.68359375 C12.4695302,4.56510357 12.198374,4.50585938 11.8748047,4.50585938 Z M20.5113281,9.03808594 C20.5113281,8.9013665 20.4908205,8.7726243 20.4498047,8.65185547 C20.4087889,8.53108664 20.3278977,8.41715548 20.2071289,8.31005859 C20.0863601,8.2029617 19.914324,8.1038416 19.6910156,8.01269531 C19.4677072,7.92154902 19.1737648,7.83723997 18.8091797,7.75976562 C18.3990214,7.67317665 18.0298845,7.57063861 17.7017578,7.45214844 C17.3736312,7.33365826 17.0944999,7.19124432 16.8643555,7.02490234 C16.6342111,6.85856037 16.4576178,6.66145947 16.3345703,6.43359375 C16.2115228,6.20572803 16.15,5.93912913 16.15,5.63378906 C16.15,5.34212094 16.2149408,5.06526824 16.3448242,4.80322266 C16.4747077,4.54117708 16.6581368,4.31103615 16.8951172,4.11279297 C17.1320975,3.91454979 17.419204,3.7573248 17.7564453,3.64111328 C18.0936866,3.52490176 18.4696594,3.46679688 18.884375,3.46679688 C19.3264345,3.46679688 19.7217756,3.52718039 20.0704102,3.64794922 C20.4190447,3.76871805 20.7152657,3.93391822 20.959082,4.14355469 C21.2028984,4.35319115 21.3886061,4.59814313 21.5162109,4.87841797 C21.6438157,5.15869281 21.7076172,5.45833174 21.7076172,5.77734375 L20.4361328,5.77734375 C20.4361328,5.62695237 20.4019535,5.47542394 20.3335938,5.32275391 C20.265234,5.17008387 20.1649746,5.03336649 20.0328125,4.91259766 C19.9006504,4.79182882 19.7388682,4.69384803 19.5474609,4.61865234 C19.3560537,4.54345666 19.1350273,4.50585938 18.884375,4.50585938 C18.6200508,4.50585938 18.3956064,4.53662079 18.2110352,4.59814453 C18.0264639,4.65966828 17.8749355,4.74169871 17.7564453,4.84423828 C17.6379551,4.94677786 17.5513675,5.06298763 17.4966797,5.19287109 C17.4419919,5.32275456 17.4146484,5.456054 17.4146484,5.59277344 C17.4146484,5.72949287 17.4374347,5.85253852 17.4830078,5.96191406 C17.528581,6.07128961 17.6151686,6.17040971 17.7427734,6.25927734 C17.8703782,6.34814498 18.0446929,6.43017541 18.2657227,6.50537109 C18.4867524,6.58056678 18.7727196,6.65690065 19.1236328,6.734375 C19.5748069,6.83919323 19.9667301,6.95768163 20.2994141,7.08984375 C20.632098,7.22200587 20.9078114,7.37581292 21.1265625,7.55126953 C21.3453136,7.72672614 21.5082351,7.92838428 21.615332,8.15625 C21.7224289,8.38411572 21.7759766,8.648436 21.7759766,8.94921875 C21.7759766,9.27278808 21.7087572,9.56900907 21.5743164,9.83789062 C21.4398756,10.1067722 21.247332,10.3369131 20.9966797,10.5283203 C20.7460274,10.7197275 20.4452492,10.8689773 20.0943359,10.9760742 C19.7434227,11.0831711 19.3537782,11.1367188 18.9253906,11.1367188 C18.4332007,11.1367188 17.999123,11.0683601 17.6231445,10.9316406 C17.2471661,10.7949212 16.9315768,10.6137707 16.6763672,10.3881836 C16.4211576,10.1625965 16.2274746,9.90511212 16.0953125,9.61572266 C15.9631504,9.32633319 15.8970703,9.02897288 15.8970703,8.72363281 L17.1617188,8.72363281 C17.1753907,8.98339974 17.2380528,9.20100824 17.349707,9.37646484 C17.4613612,9.55192145 17.6014966,9.69433539 17.7701172,9.80371094 C17.9387378,9.91308648 18.1233063,9.99055967 18.3238281,10.0361328 C18.52435,10.081706 18.7248688,10.1044922 18.9253906,10.1044922 C19.1851576,10.1044922 19.4130199,10.0771487 19.6089844,10.0224609 C19.8049489,9.96777316 19.9701491,9.8925786 20.1045898,9.796875 C20.2390306,9.7011714 20.3404294,9.58837956 20.4087891,9.45849609 C20.4771488,9.32861263 20.5113281,9.18847731 20.5113281,9.03808594 Z M24.9642578,1.8125 L24.9642578,3.60351562 L26.3451172,3.60351562 L26.3451172,4.58105469 L24.9642578,4.58105469 L24.9642578,9.16796875 C24.9642578,9.35937596 24.9870441,9.51318301 25.0326172,9.62939453 C25.0781903,9.74560605 25.1385739,9.83561166 25.2137695,9.89941406 C25.2889652,9.96321646 25.3755529,10.005371 25.4735352,10.0258789 C25.5715174,10.0463868 25.6729162,10.0566406 25.7777344,10.0566406 C25.8825526,10.0566406 25.9930658,10.0463868 26.1092774,10.0258789 C26.2254889,10.005371 26.3154945,9.98828132 26.3792969,9.97460938 L26.3792969,11 C26.279036,11.0273439 26.1491545,11.056966 25.9896484,11.0888672 C25.8301424,11.1207684 25.6364595,11.1367188 25.4085938,11.1367188 C25.1761707,11.1367188 24.9562836,11.1036787 24.7489258,11.0375977 C24.541568,10.9715166 24.3604175,10.8610034 24.2054688,10.7060547 C24.0505201,10.551106 23.9274744,10.3471692 23.8363281,10.0942383 C23.7451818,9.84130733 23.6996094,9.53027528 23.6996094,9.16113281 L23.6996094,4.58105469 L22.3529297,4.58105469 L22.3529297,3.60351562 L23.6996094,3.60351562 L23.6996094,1.8125 L24.9642578,1.8125 Z M29.0207031,11 L27.7560547,11 L27.7560547,3.60351562 L29.0207031,3.60351562 L29.0207031,11 Z M27.6535156,1.64160156 C27.6535156,1.43652241 27.7161778,1.26334706 27.8415039,1.12207031 C27.9668301,0.980793564 28.1525378,0.91015625 28.3986328,0.91015625 C28.6447278,0.91015625 28.8315749,0.980793564 28.9591797,1.12207031 C29.0867845,1.26334706 29.1505859,1.43652241 29.1505859,1.64160156 C29.1505859,1.84668071 29.0867845,2.01757744 28.9591797,2.15429688 C28.8315749,2.29101631 28.6447278,2.359375 28.3986328,2.359375 C28.1525378,2.359375 27.9668301,2.29101631 27.8415039,2.15429688 C27.7161778,2.01757744 27.6535156,1.84668071 27.6535156,1.64160156 Z M32.0654297,3.60351562 L32.1064453,4.53320312 C32.3707696,4.20051917 32.6897768,3.93961683 33.0634766,3.75048828 C33.4371764,3.56135973 33.856443,3.46679688 34.3212891,3.46679688 C34.6813169,3.46679688 35.00716,3.51578727 35.2988281,3.61376953 C35.5904963,3.71175179 35.8388662,3.86897678 36.0439453,4.08544922 C36.2490245,4.30192166 36.4073888,4.57991367 36.519043,4.91943359 C36.6306972,5.25895352 36.6865235,5.67024498 36.6865235,6.15332031 L36.6865235,11 L35.421875,11 L35.421875,6.13964844 C35.421875,5.85253763 35.3899743,5.60758565 35.3261719,5.40478516 C35.2623695,5.20198466 35.1678066,5.03678449 35.0424805,4.90917969 C34.9171543,4.78157488 34.762208,4.68815134 34.5776367,4.62890625 C34.3930655,4.56966116 34.1800142,4.54003906 33.9384766,4.54003906 C33.5283183,4.54003906 33.1682958,4.64941297 32.8583985,4.86816406 C32.5485011,5.08691516 32.306967,5.37402166 32.1337891,5.72949219 L32.1337891,11 L30.8691406,11 L30.8691406,3.60351562 L32.0654297,3.60351562 Z M40.8386719,9.14746094 L42.5613281,3.60351562 L43.9148438,3.60351562 L40.941211,12.1416016 C40.8728512,12.3238941 40.7839849,12.5221343 40.6746094,12.7363281 C40.5652338,12.9505219 40.4228199,13.1499014 40.2473633,13.3344727 C40.0719067,13.5190439 39.8611341,13.6739903 39.6150391,13.7993164 C39.3689441,13.9246426 39.079559,13.9873047 38.746875,13.9873047 C38.6967446,13.9873047 38.6375004,13.9827474 38.5691406,13.9736328 C38.5007809,13.9645182 38.4324222,13.9542644 38.3640625,13.9428711 C38.2957028,13.9314778 38.2319014,13.9200847 38.1726563,13.9086914 C38.1134112,13.8972981 38.0678387,13.8870443 38.0359375,13.8779297 L38.0359375,12.8525391 C38.0541668,12.8570964 38.0792316,12.8605143 38.1111328,12.862793 C38.143034,12.8650716 38.1760741,12.8673502 38.2102539,12.8696289 C38.2444338,12.8719076 38.2763345,12.8741862 38.305957,12.8764648 C38.3355796,12.8787435 38.3595051,12.8798828 38.3777344,12.8798828 C38.5919282,12.8798828 38.7810539,12.8593752 38.9451172,12.8183594 C39.1091805,12.7773435 39.2550124,12.7101242 39.3826172,12.6166992 C39.510222,12.5232743 39.6207352,12.3990893 39.7141602,12.2441406 C39.8075851,12.0891919 39.8930335,11.8977876 39.9705078,11.6699219 L40.2507813,10.9179688 L37.6121094,3.60351562 L38.9929688,3.60351562 L40.8386719,9.14746094 Z" id="Destiny" fill="#FFFFFF"></path>
                        <path d="M82.8056641,6.97363281 L80.4677734,6.97363281 L80.4677734,11 L79.1484375,11 L79.1484375,1.046875 L82.4433594,1.046875 C83.5644587,1.046875 84.4269176,1.30208078 85.0307617,1.8125 C85.6346059,2.32291922 85.9365234,3.06575033 85.9365234,4.04101562 C85.9365234,4.66081039 85.7690446,5.20084405 85.434082,5.66113281 C85.0991194,6.12142157 84.633141,6.46549365 84.0361328,6.69335938 L86.3740234,10.9179688 L86.3740234,11 L84.9658203,11 L82.8056641,6.97363281 Z M80.4677734,5.90039062 L82.484375,5.90039062 C82.8398455,5.90039062 83.1508776,5.85140023 83.4174805,5.75341797 C83.6840834,5.65543571 83.9062491,5.52327557 84.0839844,5.35693359 C84.2617196,5.19059162 84.3950191,4.99463003 84.4838867,4.76904297 C84.5727544,4.5434559 84.6171875,4.30078255 84.6171875,4.04101562 C84.6171875,3.75390481 84.575033,3.49300248 84.4907227,3.25830078 C84.4064123,3.02359909 84.2753915,2.82194095 84.0976562,2.65332031 C83.919921,2.48469968 83.6943373,2.35481816 83.4208984,2.26367188 C83.1474596,2.17252559 82.8216165,2.12695312 82.4433594,2.12695312 L80.4677734,2.12695312 L80.4677734,5.90039062 Z M90.4933594,11.1367188 C89.9783828,11.1367188 89.5124044,11.0478525 89.0954102,10.8701172 C88.6784159,10.6923819 88.3218114,10.4451513 88.0255859,10.128418 C87.7293605,9.81168461 87.5014982,9.4345725 87.3419922,8.99707031 C87.1824862,8.55956812 87.1027344,8.08105729 87.1027344,7.56152344 L87.1027344,7.27441406 C87.1027344,6.67284855 87.19274,6.13509352 87.3727539,5.66113281 C87.5527678,5.18717211 87.7931626,4.78841308 88.0939453,4.46484375 C88.3947281,4.14127442 88.7388001,3.89404382 89.1261719,3.72314453 C89.5135436,3.55224524 89.9168599,3.46679688 90.3361328,3.46679688 C90.8647813,3.46679688 91.3205059,3.55908111 91.7033203,3.74365234 C92.0861347,3.92822358 92.401724,4.18229005 92.6500977,4.50585938 C92.8984713,4.8294287 93.0819004,5.21223737 93.2003906,5.65429688 C93.3188808,6.09635638 93.378125,6.57714584 93.378125,7.09667969 L93.378125,7.6640625 L88.3673828,7.6640625 C88.3764974,8.00586108 88.4323237,8.32486831 88.5348633,8.62109375 C88.6374029,8.91731919 88.7832347,9.17480359 88.9723633,9.39355469 C89.1614918,9.61230578 89.3893541,9.78548113 89.655957,9.91308594 C89.9225599,10.0406907 90.2244775,10.1044922 90.5617187,10.1044922 C91.0083356,10.1044922 91.386587,10.0133473 91.6964844,9.83105469 C92.0063818,9.64876211 92.2775379,9.40722807 92.5099609,9.10644531 L93.2824219,9.70800781 C93.1639317,9.89030039 93.0203784,10.0668937 92.8517578,10.237793 C92.6831372,10.4086923 92.4860363,10.56136 92.2604492,10.6958008 C92.0348622,10.8302416 91.7762384,10.9373368 91.4845703,11.0170898 C91.1929022,11.0968428 90.8625018,11.1367188 90.4933594,11.1367188 Z M90.3361328,4.50585938 C90.0809232,4.50585938 89.846225,4.55257115 89.6320312,4.64599609 C89.4178375,4.73942104 89.2264331,4.87499911 89.0578125,5.05273438 C88.8891919,5.23046964 88.7490565,5.45149607 88.6374023,5.71582031 C88.5257481,5.98014455 88.4494143,6.28320142 88.4083984,6.625 L92.1134766,6.625 L92.1134766,6.52929688 C92.0998046,6.28320189 92.0599287,6.03938923 91.9938477,5.79785156 C91.9277666,5.5563139 91.8252286,5.33984471 91.6862305,5.1484375 C91.5472324,4.95703029 91.3683605,4.80208393 91.1496094,4.68359375 C90.9308583,4.56510357 90.6597021,4.50585938 90.3361328,4.50585938 Z M100.935937,7.38378906 C100.935937,7.92610948 100.872136,8.42626724 100.744531,8.88427734 C100.616926,9.34228745 100.431219,9.73876786 100.187402,10.0737305 C99.943586,10.4086931 99.6439471,10.6695954 99.2884766,10.8564453 C98.933006,11.0432952 98.5274111,11.1367188 98.0716797,11.1367188 C97.6068336,11.1367188 97.2000994,11.0638028 96.8514648,10.9179688 C96.5028303,10.7721347 96.2031914,10.5602227 95.9525391,10.2822266 L95.9525391,13.84375 L94.6878906,13.84375 L94.6878906,3.60351562 L95.8431641,3.60351562 L95.9046875,4.42382812 C96.1553398,4.11393074 96.4583967,3.87695395 96.8138672,3.71289062 C97.1693377,3.5488273 97.5817685,3.46679688 98.0511719,3.46679688 C98.5160179,3.46679688 98.9273094,3.5579418 99.2850586,3.74023438 C99.6428078,3.92252695 99.9447253,4.17887205 100.19082,4.50927734 C100.436915,4.83968264 100.622623,5.23616305 100.747949,5.69873047 C100.873275,6.16129789 100.935937,6.67512738 100.935937,7.24023438 L100.935937,7.38378906 Z M99.6712891,7.24023438 C99.6712891,6.8710919 99.6325525,6.52360189 99.5550781,6.19775391 C99.4776038,5.87190592 99.3568368,5.58593873 99.1927734,5.33984375 C99.0287101,5.09374877 98.8213554,4.8989265 98.5707031,4.75537109 C98.3200508,4.61181569 98.0215512,4.54003906 97.6751953,4.54003906 C97.4610015,4.54003906 97.2661793,4.56510392 97.0907227,4.61523438 C96.915266,4.66536483 96.7569017,4.73600215 96.615625,4.82714844 C96.4743482,4.91829473 96.349024,5.02652932 96.2396484,5.15185547 C96.1302729,5.27718162 96.0345707,5.41275969 95.9525391,5.55859375 L95.9525391,9.09277344 C96.0345707,9.2386075 96.1302729,9.37418557 96.2396484,9.49951172 C96.349024,9.62483787 96.4743482,9.73193315 96.615625,9.82080078 C96.7569017,9.90966841 96.9164054,9.97916642 97.0941406,10.0292969 C97.2718759,10.0794273 97.4701161,10.1044922 97.6888672,10.1044922 C98.0306658,10.1044922 98.3257475,10.0315763 98.5741211,9.88574219 C98.8224947,9.73990812 99.0287101,9.54394654 99.1927734,9.29785156 C99.3568368,9.05175658 99.4776038,8.76351077 99.5550781,8.43310547 C99.6325525,8.10270017 99.6712891,7.75293153 99.6712891,7.38378906 L99.6712891,7.24023438 Z M102.054297,7.23339844 C102.054297,6.69563533 102.132909,6.1977562 102.290137,5.73974609 C102.447364,5.28173599 102.670669,4.88411627 102.960059,4.546875 C103.249448,4.20963373 103.601495,3.94531346 104.016211,3.75390625 C104.430927,3.56249904 104.895766,3.46679688 105.410742,3.46679688 C105.934833,3.46679688 106.405369,3.56249904 106.822363,3.75390625 C107.239358,3.94531346 107.593683,4.20963373 107.885352,4.546875 C108.17702,4.88411627 108.400325,5.28173599 108.555273,5.73974609 C108.710222,6.1977562 108.787695,6.69563533 108.787695,7.23339844 L108.787695,7.38378906 C108.787695,7.92155217 108.710222,8.4194313 108.555273,8.87744141 C108.400325,9.33545151 108.17702,9.73193192 107.885352,10.0668945 C107.593683,10.4018571 107.240497,10.6638988 106.825781,10.8530273 C106.411066,11.0421559 105.943948,11.1367188 105.424414,11.1367188 C104.90488,11.1367188 104.437762,11.0421559 104.023047,10.8530273 C103.608331,10.6638988 103.255145,10.4018571 102.963477,10.0668945 C102.671808,9.73193192 102.447364,9.33545151 102.290137,8.87744141 C102.132909,8.4194313 102.054297,7.92155217 102.054297,7.38378906 L102.054297,7.23339844 Z M103.325781,7.38378906 C103.325781,7.75293153 103.369075,8.10156086 103.455664,8.4296875 C103.542253,8.75781414 103.673274,9.04605996 103.84873,9.29443359 C104.024187,9.54280723 104.242935,9.73990812 104.50498,9.88574219 C104.767026,10.0315763 105.073501,10.1044922 105.424414,10.1044922 C105.77077,10.1044922 106.076105,10.0315763 106.34043,9.88574219 C106.604754,9.73990812 106.823502,9.54280723 106.99668,9.29443359 C107.169858,9.04605996 107.300878,8.75781414 107.389746,8.4296875 C107.478614,8.10156086 107.523047,7.75293153 107.523047,7.38378906 L107.523047,7.23339844 C107.523047,6.86881328 107.478614,6.52132327 107.389746,6.19091797 C107.300878,5.86051267 107.168718,5.57112754 106.993262,5.32275391 C106.817805,5.07438027 106.597918,4.87614006 106.333594,4.72802734 C106.06927,4.57991462 105.761655,4.50585938 105.410742,4.50585938 C105.064386,4.50585938 104.761329,4.57991462 104.501562,4.72802734 C104.241796,4.87614006 104.024187,5.07438027 103.84873,5.32275391 C103.673274,5.57112754 103.542253,5.86051267 103.455664,6.19091797 C103.369075,6.52132327 103.325781,6.86881328 103.325781,7.23339844 L103.325781,7.38378906 Z M113.795703,4.73828125 C113.686328,4.72005199 113.584929,4.70751957 113.491504,4.70068359 C113.398079,4.69384762 113.292123,4.69042969 113.173633,4.69042969 C112.736131,4.69042969 112.379526,4.78613186 112.103809,4.97753906 C111.828091,5.16894627 111.621876,5.42643067 111.485156,5.75 L111.485156,11 L110.220508,11 L110.220508,3.60351562 L111.450977,3.60351562 L111.471484,4.45800781 C111.662892,4.15266774 111.902147,3.9111337 112.189258,3.73339844 C112.476369,3.55566317 112.824998,3.46679688 113.235156,3.46679688 C113.326303,3.46679688 113.431119,3.47705068 113.549609,3.49755859 C113.6681,3.51806651 113.75013,3.53971343 113.795703,3.5625 L113.795703,4.73828125 Z M116.862305,1.8125 L116.862305,3.60351562 L118.243164,3.60351562 L118.243164,4.58105469 L116.862305,4.58105469 L116.862305,9.16796875 C116.862305,9.35937596 116.885091,9.51318301 116.930664,9.62939453 C116.976237,9.74560605 117.036621,9.83561166 117.111816,9.89941406 C117.187012,9.96321646 117.2736,10.005371 117.371582,10.0258789 C117.469564,10.0463868 117.570963,10.0566406 117.675781,10.0566406 C117.780599,10.0566406 117.891113,10.0463868 118.007324,10.0258789 C118.123536,10.005371 118.213541,9.98828132 118.277344,9.97460938 L118.277344,11 C118.177083,11.0273439 118.047201,11.056966 117.887695,11.0888672 C117.728189,11.1207684 117.534506,11.1367188 117.306641,11.1367188 C117.074218,11.1367188 116.85433,11.1036787 116.646973,11.0375977 C116.439615,10.9715166 116.258464,10.8610034 116.103516,10.7060547 C115.948567,10.551106 115.825521,10.3471692 115.734375,10.0942383 C115.643229,9.84130733 115.597656,9.53027528 115.597656,9.16113281 L115.597656,4.58105469 L114.250977,4.58105469 L114.250977,3.60351562 L115.597656,3.60351562 L115.597656,1.8125 L116.862305,1.8125 Z" id="Report" fill="#FFFFFF"></path>
                        <path d="M52.0322266,2.12695312 L48.8330078,2.12695312 L48.8330078,11 L47.5273438,11 L47.5273438,2.12695312 L44.3349609,2.12695312 L44.3349609,1.046875 L52.0322266,1.046875 L52.0322266,2.12695312 Z M56.2199219,4.73828125 C56.1105463,4.72005199 56.0091476,4.70751957 55.9157227,4.70068359 C55.8222977,4.69384762 55.7163417,4.69042969 55.5978516,4.69042969 C55.1603494,4.69042969 54.8037449,4.78613186 54.5280273,4.97753906 C54.2523098,5.16894627 54.0460944,5.42643067 53.909375,5.75 L53.909375,11 L52.6447266,11 L52.6447266,3.60351563 L53.8751953,3.60351563 L53.8957031,4.45800781 C54.0871103,4.15266774 54.3263657,3.9111337 54.6134766,3.73339844 C54.9005874,3.55566317 55.2492167,3.46679688 55.659375,3.46679688 C55.7505213,3.46679688 55.8553379,3.47705068 55.9738281,3.49755859 C56.0923183,3.51806651 56.1743487,3.53971343 56.2199219,3.5625 L56.2199219,4.73828125 Z M58.6029297,11 L57.3382812,11 L57.3382812,3.60351563 L58.6029297,3.60351563 L58.6029297,11 Z M57.2357422,1.64160156 C57.2357422,1.43652241 57.2984043,1.26334706 57.4237305,1.12207031 C57.5490566,0.980793564 57.7347644,0.91015625 57.9808594,0.91015625 C58.2269543,0.91015625 58.4138014,0.980793564 58.5414062,1.12207031 C58.669011,1.26334706 58.7328125,1.43652241 58.7328125,1.64160156 C58.7328125,1.84668071 58.669011,2.01757744 58.5414062,2.15429688 C58.4138014,2.29101631 58.2269543,2.359375 57.9808594,2.359375 C57.7347644,2.359375 57.5490566,2.29101631 57.4237305,2.15429688 C57.2984043,2.01757744 57.2357422,1.84668071 57.2357422,1.64160156 Z M65.0396484,11 C64.9940753,10.9088537 64.9576173,10.7937832 64.9302734,10.6547852 C64.9029295,10.5157871 64.8801433,10.3710945 64.8619141,10.2207031 C64.7434239,10.3437506 64.6101244,10.4610997 64.4620117,10.5727539 C64.313899,10.6844081 64.1521168,10.7823889 63.9766601,10.8666992 C63.8012035,10.9510095 63.6109385,11.0170896 63.4058594,11.0649414 C63.2007802,11.1127932 62.984311,11.1367188 62.7564453,11.1367188 C62.3781882,11.1367188 62.0352554,11.0797532 61.7276367,10.9658203 C61.420018,10.8518875 61.1579763,10.6969411 60.9415039,10.5009766 C60.7250315,10.305012 60.5575527,10.0737318 60.4390625,9.80712891 C60.3205723,9.54052601 60.2613281,9.25455882 60.2613281,8.94921875 C60.2613281,8.55273239 60.3388013,8.20296375 60.49375,7.89990234 C60.6486987,7.59684093 60.8708644,7.34277446 61.1602539,7.13769531 C61.4496434,6.93261616 61.799412,6.77766979 62.2095703,6.67285156 C62.6197286,6.56803333 63.0777318,6.515625 63.5835937,6.515625 L64.8414062,6.515625 L64.8414062,5.93457031 C64.8414062,5.49251081 64.7092461,5.14046355 64.4449219,4.87841797 C64.1805976,4.61637239 63.7909531,4.48535156 63.2759766,4.48535156 C63.0389962,4.48535156 62.822527,4.51725229 62.6265625,4.58105469 C62.430598,4.64485709 62.2631192,4.73030545 62.1241211,4.83740234 C61.985123,4.94449923 61.8768884,5.06868419 61.7994141,5.20996094 C61.7219397,5.35123769 61.6832031,5.49934818 61.6832031,5.65429688 L60.4117187,5.65429688 C60.4117187,5.38997264 60.4812167,5.12793099 60.6202148,4.86816406 C60.7592129,4.60839714 60.9563138,4.37483828 61.2115234,4.16748047 C61.466733,3.96012266 61.7754865,3.79150456 62.137793,3.66162109 C62.5000995,3.53173763 62.904555,3.46679688 63.3511719,3.46679688 C63.7522155,3.46679688 64.1224918,3.51806589 64.4620117,3.62060547 C64.8015316,3.72314504 65.0920561,3.87809141 65.3335937,4.08544922 C65.5751314,4.29280703 65.7642571,4.55143074 65.9009766,4.86132812 C66.037696,5.17122551 66.1060547,5.53352657 66.1060547,5.94824219 L66.1060547,9.38671875 C66.1060547,9.63737104 66.1277016,9.90055201 66.1709961,10.1762695 C66.2142906,10.4519871 66.2792313,10.6901032 66.3658203,10.890625 L66.3658203,11 L65.0396484,11 Z M62.9410156,10.0361328 C63.1688813,10.0361328 63.3830719,10.0042321 63.5835937,9.94042969 C63.7841156,9.87662729 63.9664054,9.79345754 64.1304687,9.69091797 C64.2945321,9.58837839 64.436946,9.47102931 64.5577148,9.33886719 C64.6784837,9.20670507 64.7730465,9.06998769 64.8414062,8.92871094 L64.8414062,7.41113281 L63.7886719,7.41113281 C63.0640589,7.41113281 62.5057962,7.52392465 62.1138672,7.74951172 C61.7219381,7.97509878 61.5259766,8.31575293 61.5259766,8.77148438 C61.5259766,8.94921964 61.5555987,9.11555912 61.6148437,9.27050781 C61.6740888,9.4254565 61.7640944,9.55875595 61.8848633,9.67041016 C62.0056321,9.78206436 62.1537426,9.87093066 62.3291992,9.93701172 C62.5046558,10.0030928 62.7085926,10.0361328 62.9410156,10.0361328 Z M69.309375,11 L68.0447266,11 L68.0447266,0.5 L69.309375,0.5 L69.309375,11 Z M75.4863281,9.03808594 C75.4863281,8.9013665 75.4658205,8.7726243 75.4248047,8.65185547 C75.3837888,8.53108664 75.3028977,8.41715548 75.1821289,8.31005859 C75.0613601,8.2029617 74.889324,8.1038416 74.6660156,8.01269531 C74.4427072,7.92154902 74.1487648,7.83723997 73.7841797,7.75976562 C73.3740214,7.67317665 73.0048844,7.57063861 72.6767578,7.45214844 C72.3486312,7.33365826 72.0694998,7.19124432 71.8393555,7.02490234 C71.6092111,6.85856037 71.4326178,6.66145947 71.3095703,6.43359375 C71.1865228,6.20572803 71.125,5.93912913 71.125,5.63378906 C71.125,5.34212094 71.1899407,5.06526824 71.3198242,4.80322266 C71.4497077,4.54117708 71.6331368,4.31103615 71.8701172,4.11279297 C72.1070975,3.91454979 72.394204,3.7573248 72.7314453,3.64111328 C73.0686866,3.52490176 73.4446594,3.46679688 73.859375,3.46679688 C74.3014345,3.46679688 74.6967756,3.52718039 75.0454101,3.64794922 C75.3940447,3.76871805 75.6902657,3.93391822 75.934082,4.14355469 C76.1778983,4.35319115 76.3636061,4.59814313 76.4912109,4.87841797 C76.6188157,5.15869281 76.6826172,5.45833174 76.6826172,5.77734375 L75.4111328,5.77734375 C75.4111328,5.62695237 75.3769535,5.47542394 75.3085937,5.32275391 C75.240234,5.17008387 75.1399746,5.03336649 75.0078125,4.91259766 C74.8756504,4.79182882 74.7138681,4.69384803 74.5224609,4.61865234 C74.3310537,4.54345666 74.1100273,4.50585938 73.859375,4.50585938 C73.5950507,4.50585938 73.3706064,4.53662079 73.1860351,4.59814453 C73.0014639,4.65966828 72.8499355,4.74169871 72.7314453,4.84423828 C72.6129551,4.94677786 72.5263674,5.06298763 72.4716797,5.19287109 C72.4169919,5.32275456 72.3896484,5.456054 72.3896484,5.59277344 C72.3896484,5.72949287 72.4124347,5.85253852 72.4580078,5.96191406 C72.5035809,6.07128961 72.5901686,6.17040971 72.7177734,6.25927734 C72.8453782,6.34814498 73.0196929,6.43017541 73.2407226,6.50537109 C73.4617524,6.58056678 73.7477196,6.65690065 74.0986328,6.734375 C74.5498069,6.83919323 74.9417301,6.95768163 75.274414,7.08984375 C75.607098,7.22200587 75.8828114,7.37581292 76.1015625,7.55126953 C76.3203136,7.72672614 76.4832351,7.92838428 76.590332,8.15625 C76.6974289,8.38411572 76.7509765,8.648436 76.7509765,8.94921875 C76.7509765,9.27278808 76.6837572,9.56900907 76.5493164,9.83789062 C76.4148756,10.1067722 76.222332,10.3369131 75.9716797,10.5283203 C75.7210274,10.7197275 75.4202491,10.8689773 75.0693359,10.9760742 C74.7184227,11.0831711 74.3287782,11.1367188 73.9003906,11.1367188 C73.4082006,11.1367188 72.974123,11.0683601 72.5981445,10.9316406 C72.2221661,10.7949212 71.9065768,10.6137707 71.6513672,10.3881836 C71.3961576,10.1625965 71.2024746,9.90511212 71.0703125,9.61572266 C70.9381504,9.32633319 70.8720703,9.02897288 70.8720703,8.72363281 L72.1367187,8.72363281 C72.1503907,8.98339974 72.2130528,9.20100824 72.324707,9.37646484 C72.4363612,9.55192145 72.5764965,9.69433539 72.7451172,9.80371094 C72.9137378,9.91308648 73.0983063,9.99055967 73.2988281,10.0361328 C73.4993499,10.081706 73.6998688,10.1044922 73.9003906,10.1044922 C74.1601575,10.1044922 74.3880198,10.0771487 74.5839844,10.0224609 C74.7799489,9.96777316 74.9451491,9.8925786 75.0795898,9.796875 C75.2140306,9.7011714 75.3154293,9.58837956 75.383789,9.45849609 C75.4521488,9.32861263 75.4863281,9.18847731 75.4863281,9.03808594 Z" id="Trials" fill="#FFD700"></path>
                    </g>
                </g>
            </g>
            <g id="Player" mask="url(#mask-2)">
                <g transform="translate(202.000000, 10.000000)">
                    <mask id="mask-5" fill="white">
                        <use xlink:href="#path-4"></use>
                    </mask>
                    <use id="Background" stroke="none" fill="#FFFFFF" fill-rule="evenodd" xlink:href="#path-4"></use>
                    <g id="Header" stroke="none" stroke-width="1" fill="none" fill-rule="evenodd" mask="url(#mask-5)">
                        <rect id="Emblem" fill="#DC0025" x="0" y="0" width="169" height="46"></rect>
                        <g id="Text" transform="translate(46.000000, 16.000000)">
                            <rect id="Title" fill="#FFFFFF" x="0" y="0" width="60" height="4" rx="2"></rect>
                            <rect id="Subtitle" fill-opacity="0.338456748" fill="#FFFFFF" x="0" y="10" width="25" height="4" rx="2"></rect>
                            <rect id="Grimoire" fill-opacity="0.338456748" fill="#FFFFFF" x="103" y="10" width="10" height="4" rx="2"></rect>
                            <rect id="Light" fill="#FFD700" x="98" y="0" width="15" height="4" rx="2"></rect>
                        </g>
                        <circle id="Avatar" fill-opacity="0.25" fill="#FFFFFF" cx="23" cy="23" r="13"></circle>
                    </g>
                    <g id="Intro" stroke="none" stroke-width="1" fill="none" fill-rule="evenodd" mask="url(#mask-5)">
                        <g transform="translate(10.000000, 66.000000)">
                            <g id="Matches" stroke-width="1" fill="none">
                                <circle id="Match" fill="#84E9B0" cx="3" cy="3" r="3"></circle>
                                <circle id="Match" fill="#84E9B0" cx="11" cy="8" r="3"></circle>
                                <circle id="Match" fill="#84E9B0" cx="27" cy="8" r="3"></circle>
                                <circle id="Match" fill="#84E9B0" cx="75" cy="9" r="3"></circle>
                                <circle id="Match" fill="#84E9B0" cx="107" cy="12" r="3"></circle>
                                <circle id="Match" fill="#84E9B0" cx="83" cy="12" r="3"></circle>
                                <circle id="Match" fill="#84E9B0" cx="43" cy="11" r="3"></circle>
                                <circle id="Match" fill="#84E9B0" cx="51" cy="3" r="3"></circle>
                                <g id="Match">
                                    <use fill="#FFFFFF" fill-rule="evenodd" xlink:href="#path-6"></use>
                                    <circle stroke="#F28B8D" stroke-width="1" cx="19" cy="11" r="2.5"></circle>
                                </g>
                                <g id="Match">
                                    <use fill="#FFFFFF" fill-rule="evenodd" xlink:href="#path-7"></use>
                                    <circle stroke="#F28B8D" stroke-width="1" cx="35" cy="6" r="2.5"></circle>
                                </g>
                                <g id="Match">
                                    <use fill="#FFFFFF" fill-rule="evenodd" xlink:href="#path-8"></use>
                                    <circle stroke="#F28B8D" stroke-width="1" cx="91" cy="6" r="2.5"></circle>
                                </g>
                                <g id="Match">
                                    <use fill="#FFFFFF" fill-rule="evenodd" xlink:href="#path-9"></use>
                                    <circle stroke="#F28B8D" stroke-width="1" cx="99" cy="11" r="2.5"></circle>
                                </g>
                                <circle id="Match" fill="#84E9B0" cx="59" cy="7" r="3"></circle>
                                <g id="Match">
                                    <use fill="#FFFFFF" fill-rule="evenodd" xlink:href="#path-10"></use>
                                    <circle stroke="#F28B8D" stroke-width="1" cx="67" cy="13" r="2.5"></circle>
                                </g>
                            </g>
                            <rect id="KD" fill-opacity="0.5" fill="#000000" x="124" y="6" width="25" height="4" rx="2"></rect>
                        </g>
                    </g>
                    <g id="Tabs" stroke="none" stroke-width="1" fill="none" fill-rule="evenodd" mask="url(#mask-5)">
                        <g transform="translate(0.000000, 102.000000)">
                            <g id="Content" transform="translate(0.000000, 24.000000)">
                                <rect id="Background" fill-opacity="0.5" fill="#DAF0EF" x="0" y="0" width="169" height="72"></rect>
                                <rect id="Text" fill-opacity="0.05" fill="#000000" x="10" y="20" width="110" height="4" rx="2"></rect>
                                <rect id="Text" fill-opacity="0.05" fill="#000000" x="10" y="34" width="90" height="4" rx="2"></rect>
                                <rect id="Text" fill-opacity="0.05" fill="#000000" x="10" y="48" width="130" height="4" rx="2"></rect>
                            </g>
                            <g id="Header">
                                <g id="Inactive" fill-opacity="0.5">
                                    <rect id="Background" fill="#B5D8D7" x="0" y="0" width="169" height="24"></rect>
                                    <rect id="Heading" fill="#FFFFFF" x="10" y="10" width="40" height="4" rx="2"></rect>
                                    <rect id="Heading" fill="#FFFFFF" x="129" y="10" width="30" height="4" rx="2"></rect>
                                </g>
                                <g id="Active" transform="translate(59.000000, 0.000000)">
                                    <rect id="Background" fill="#ECF7F7" x="0" y="0" width="60" height="24"></rect>
                                    <rect id="Heading" fill-opacity="0.3" fill="#000000" x="10" y="10" width="40" height="4" rx="2"></rect>
                                </g>
                            </g>
                        </g>
                    </g>
                    <g id="Tabs" stroke="none" stroke-width="1" fill="none" fill-rule="evenodd" mask="url(#mask-5)">
                        <g transform="translate(0.000000, 198.000000)">
                            <g id="Content" transform="translate(10.000000, 44.000000)">
                                <g id="Weapon">
                                    <rect id="Icon" fill="#6C2E89" x="0" y="0" width="35" height="35" rx="3"></rect>
                                    <rect id="Title" fill-opacity="0.5" fill="#333333" x="50" y="16" width="70" height="4" rx="2"></rect>
                                </g>
                                <g id="Weapon" transform="translate(0.000000, 50.000000)">
                                    <rect id="Title" fill-opacity="0.5" fill="#333333" x="50" y="16" width="50" height="4" rx="2"></rect>
                                    <rect id="Icon" fill="#6C2E89" x="0" y="0" width="35" height="35" rx="3"></rect>
                                </g>
                                <g id="Weapon" transform="translate(0.000000, 100.000000)">
                                    <rect id="Title" fill-opacity="0.5" fill="#333333" x="50" y="16" width="60" height="4" rx="2"></rect>
                                    <rect id="Icon" fill="#FFD12E" x="0" y="0" width="35" height="35" rx="3"></rect>
                                </g>
                            </g>
                            <g id="Header">
                                <g id="Inactive" transform="translate(60.000000, 0.000000)">
                                    <rect id="Background" fill="#ECEFF1" x="0" y="0" width="109" height="24"></rect>
                                    <rect id="Heading" fill-opacity="0.75" fill="#FFFFFF" x="27" y="10" width="35" height="4" rx="2"></rect>
                                    <rect id="Heading" fill-opacity="0.75" fill="#FFFFFF" x="74" y="10" width="25" height="4" rx="2"></rect>
                                </g>
                                <g id="Active">
                                    <rect id="Background" fill="#FFFFFF" x="0" y="0" width="77" height="24"></rect>
                                    <rect id="Heading" fill-opacity="0.2" fill="#333333" x="10" y="10" width="57" height="4" rx="2"></rect>
                                </g>
                            </g>
                        </g>
                    </g>
                    <path d="M0,398.5 L169,398.5" id="Seperator" stroke="#EEEEEE" stroke-width="1" fill="none" stroke-linecap="square" mask="url(#mask-5)"></path>
                    <g id="Perks" stroke="none" stroke-width="1" fill="none" fill-rule="evenodd" mask="url(#mask-5)" fill-opacity="0.25">
                        <g transform="translate(10.000000, 414.000000)" id="Perk" fill="#527281">
                            <rect x="0" y="0" width="40" height="4" rx="2"></rect>
                            <rect x="0" y="14" width="60" height="4" rx="2"></rect>
                            <rect x="0" y="28" width="50" height="4" rx="2"></rect>
                            <rect x="82" y="0" width="60" height="4" rx="2"></rect>
                            <rect x="82" y="14" width="31" height="4" rx="2"></rect>
                            <rect x="82" y="28" width="43" height="4" rx="2"></rect>
                        </g>
                    </g>
                </g>
            </g>
            <g id="Player" mask="url(#mask-2)">
                <g transform="translate(381.000000, 10.000000)">
                    <mask id="mask-12" fill="white">
                        <use xlink:href="#path-11"></use>
                    </mask>
                    <use id="Background" stroke="none" fill="#FFFFFF" fill-rule="evenodd" xlink:href="#path-11"></use>
                    <g id="Header" stroke="none" stroke-width="1" fill="none" fill-rule="evenodd" mask="url(#mask-12)">
                        <rect id="Emblem" fill="#00E676" x="0" y="0" width="169" height="46"></rect>
                        <g id="Text" transform="translate(46.000000, 16.000000)">
                            <rect id="Title" fill="#FFFFFF" x="0" y="0" width="49" height="4" rx="2"></rect>
                            <rect id="Subtitle" fill-opacity="0.338456748" fill="#FFFFFF" x="0" y="10" width="35" height="4" rx="2"></rect>
                            <rect id="Grimoire" fill-opacity="0.338456748" fill="#FFFFFF" x="103" y="10" width="10" height="4" rx="2"></rect>
                            <rect id="Light" fill="#FFD700" x="98" y="0" width="15" height="4" rx="2"></rect>
                        </g>
                        <rect id="Avatar" fill-opacity="0.25" fill="#FFFFFF" x="10" y="10" width="26" height="26" rx="5"></rect>
                    </g>
                    <g id="Intro" stroke="none" stroke-width="1" fill="none" fill-rule="evenodd" mask="url(#mask-12)">
                        <g transform="translate(10.000000, 64.000000)">
                            <g id="Matches" stroke-width="1" fill="none">
                                <g id="Match/Loss" transform="translate(0.000000, 7.000000)">
                                    <g id="Match">
                                        <use fill="#FFFFFF" fill-rule="evenodd" xlink:href="#path-13"></use>
                                        <circle stroke="#F28B8D" stroke-width="1" cx="3" cy="3" r="2.5"></circle>
                                    </g>
                                </g>
                                <g id="Match/Loss" transform="translate(8.000000, 12.000000)">
                                    <g id="Match">
                                        <use fill="#FFFFFF" fill-rule="evenodd" xlink:href="#path-14"></use>
                                        <circle stroke="#F28B8D" stroke-width="1" cx="3" cy="3" r="2.5"></circle>
                                    </g>
                                </g>
                                <g id="Match/Loss" transform="translate(24.000000, 5.000000)">
                                    <g id="Match">
                                        <use fill="#FFFFFF" fill-rule="evenodd" xlink:href="#path-15"></use>
                                        <circle stroke="#F28B8D" stroke-width="1" cx="3" cy="3" r="2.5"></circle>
                                    </g>
                                </g>
                                <g id="Match/Loss" transform="translate(72.000000, 8.000000)">
                                    <g id="Match">
                                        <use fill="#FFFFFF" fill-rule="evenodd" xlink:href="#path-16"></use>
                                        <circle stroke="#F28B8D" stroke-width="1" cx="3" cy="3" r="2.5"></circle>
                                    </g>
                                </g>
                                <circle id="Match" fill="#84E9B0" cx="107" cy="13" r="3"></circle>
                                <g id="Match/Loss" transform="translate(80.000000, 3.000000)">
                                    <g id="Match">
                                        <use fill="#FFFFFF" fill-rule="evenodd" xlink:href="#path-17"></use>
                                        <circle stroke="#F28B8D" stroke-width="1" cx="3" cy="3" r="2.5"></circle>
                                    </g>
                                </g>
                                <circle id="Match" fill="#84E9B0" cx="43" cy="9" r="3"></circle>
                                <g id="Match/Loss" transform="translate(48.000000, 10.000000)">
                                    <g id="Match">
                                        <use fill="#FFFFFF" fill-rule="evenodd" xlink:href="#path-18"></use>
                                        <circle stroke="#F28B8D" stroke-width="1" cx="3" cy="3" r="2.5"></circle>
                                    </g>
                                </g>
                                <g id="Match/Win" transform="translate(16.000000, 1.000000)" fill="#84E9B0">
                                    <circle id="Match" cx="3" cy="3" r="3"></circle>
                                </g>
                                <g id="Match/Win" transform="translate(32.000000, 9.000000)" fill="#84E9B0">
                                    <circle id="Match" cx="3" cy="3" r="3"></circle>
                                </g>
                                <g id="Match/Win" transform="translate(88.000000, 9.000000)" fill="#84E9B0">
                                    <circle id="Match" cx="3" cy="3" r="3"></circle>
                                </g>
                                <g id="Match">
                                    <use fill="#FFFFFF" fill-rule="evenodd" xlink:href="#path-19"></use>
                                    <circle stroke="#F28B8D" stroke-width="1" cx="99" cy="17" r="2.5"></circle>
                                </g>
                                <circle id="Match" fill="#84E9B0" cx="59" cy="3" r="3"></circle>
                                <g id="Match/Win" transform="translate(64.000000, 5.000000)" fill="#84E9B0">
                                    <circle id="Match" cx="3" cy="3" r="3"></circle>
                                </g>
                            </g>
                            <rect id="KD" fill-opacity="0.5" fill="#000000" x="124" y="8" width="25" height="4" rx="2"></rect>
                        </g>
                    </g>
                    <g id="Tabs" stroke="none" stroke-width="1" fill="none" fill-rule="evenodd" mask="url(#mask-12)">
                        <g transform="translate(0.000000, 102.000000)">
                            <g id="Content" transform="translate(0.000000, 24.000000)">
                                <rect id="Background" fill="#E9FBFD" x="0" y="0" width="169" height="72"></rect>
                                <rect id="Text" fill-opacity="0.05" fill="#000000" x="10" y="20" width="94" height="4" rx="2"></rect>
                                <rect id="Text" fill-opacity="0.05" fill="#000000" x="10" y="34" width="134" height="4" rx="2"></rect>
                                <rect id="Text" fill-opacity="0.05" fill="#000000" x="10" y="48" width="94" height="4" rx="2"></rect>
                            </g>
                            <g id="Header">
                                <g id="Inactive" fill-opacity="0.5">
                                    <rect id="Background" fill="#BDE5EA" x="0" y="0" width="169" height="24"></rect>
                                    <rect id="Heading" fill="#FFFFFF" x="10" y="10" width="40" height="4" rx="2"></rect>
                                    <rect id="Heading" fill="#FFFFFF" x="68" y="10" width="40" height="4" rx="2"></rect>
                                </g>
                                <g id="Active" transform="translate(119.000000, 0.000000)">
                                    <rect id="Background" fill="#E9FBFD" x="0" y="0" width="50" height="24"></rect>
                                    <rect id="Heading" fill-opacity="0.3" fill="#000000" x="10" y="10" width="30" height="4" rx="2"></rect>
                                </g>
                            </g>
                        </g>
                    </g>
                    <g id="Tabs" stroke="none" stroke-width="1" fill="none" fill-rule="evenodd" mask="url(#mask-12)">
                        <g transform="translate(0.000000, 198.000000)">
                            <g id="Content" transform="translate(10.000000, 44.000000)">
                                <g id="Weapon">
                                    <rect id="Icon" fill="#FFD12E" x="0" y="0" width="35" height="35" rx="3"></rect>
                                    <rect id="Title" fill-opacity="0.5" fill="#333333" x="50" y="16" width="53" height="4" rx="2"></rect>
                                </g>
                                <g id="Weapon" transform="translate(0.000000, 50.000000)">
                                    <rect id="Title" fill-opacity="0.5" fill="#333333" x="50" y="16" width="79" height="4" rx="2"></rect>
                                    <rect id="Icon" fill="#6C2E89" x="0" y="0" width="35" height="35" rx="3"></rect>
                                </g>
                                <g id="Weapon" transform="translate(0.000000, 100.000000)">
                                    <rect id="Title" fill-opacity="0.5" fill="#333333" x="50" y="16" width="39" height="4" rx="2"></rect>
                                    <rect id="Icon" fill="#6C2E89" x="0" y="0" width="35" height="35" rx="3"></rect>
                                </g>
                            </g>
                            <g id="Header">
                                <g id="Inactive" transform="translate(60.000000, 0.000000)">
                                    <rect id="Background" fill="#ECEFF1" x="0" y="0" width="109" height="24"></rect>
                                    <rect id="Heading" fill-opacity="0.75" fill="#FFFFFF" x="27" y="10" width="35" height="4" rx="2"></rect>
                                    <rect id="Heading" fill-opacity="0.75" fill="#FFFFFF" x="74" y="10" width="25" height="4" rx="2"></rect>
                                </g>
                                <g id="Active">
                                    <rect id="Background" fill="#FFFFFF" x="0" y="0" width="77" height="24"></rect>
                                    <rect id="Heading" fill-opacity="0.2" fill="#000000" x="10" y="10" width="57" height="4" rx="2"></rect>
                                </g>
                            </g>
                        </g>
                    </g>
                    <path d="M0,398.5 L169,398.5" id="Seperator" stroke="#EEEEEE" stroke-width="1" fill="none" stroke-linecap="square" mask="url(#mask-12)"></path>
                    <g id="Perks" stroke="none" stroke-width="1" fill="none" fill-rule="evenodd" mask="url(#mask-12)" fill-opacity="0.25">
                        <g transform="translate(10.000000, 414.000000)" id="Perk" fill="#527281">
                            <rect x="0" y="0" width="55" height="4" rx="2"></rect>
                            <rect x="0" y="14" width="47" height="4" rx="2"></rect>
                            <rect x="0" y="28" width="60" height="4" rx="2"></rect>
                            <rect x="82" y="0" width="44" height="4" rx="2"></rect>
                            <rect x="82" y="14" width="47" height="4" rx="2"></rect>
                            <rect x="82" y="28" width="33" height="4" rx="2"></rect>
                        </g>
                    </g>
                </g>
            </g>
            <g id="Player" mask="url(#mask-2)">
                <g transform="translate(560.000000, 10.000000)">
                    <mask id="mask-21" fill="white">
                        <use xlink:href="#path-20"></use>
                    </mask>
                    <use id="Background" stroke="none" fill="#FFFFFF" fill-rule="evenodd" xlink:href="#path-20"></use>
                    <g id="Header" stroke="none" stroke-width="1" fill="none" fill-rule="evenodd" mask="url(#mask-21)">
                        <rect id="Emblem" fill="#FF8F00" x="0" y="0" width="169" height="46"></rect>
                        <g id="Text" transform="translate(46.000000, 16.000000)">
                            <rect id="Title" fill="#FFFFFF" x="0" y="0" width="75" height="4" rx="2"></rect>
                            <rect id="Subtitle" fill-opacity="0.338456748" fill="#FFFFFF" x="0" y="10" width="41" height="4" rx="2"></rect>
                            <rect id="Grimoire" fill-opacity="0.338456748" fill="#FFFFFF" x="103" y="10" width="10" height="4" rx="2"></rect>
                            <rect id="Light" fill="#FFD700" x="98" y="0" width="15" height="4" rx="2"></rect>
                        </g>
                        <path d="M21.7818564,11.0320979 C22.5281059,9.55434824 23.7419296,9.56198175 24.4843966,11.0320979 L35.7428413,33.3242975 C36.4891635,34.8020472 35.7474955,36 34.0929024,36 L12.174579,36 C10.5170206,36 9.7821137,34.7944137 10.5245083,33.3242975 L21.7818564,11.0320979 Z" id="Avatar" fill-opacity="0.25" fill="#FFFFFF"></path>
                    </g>
                    <g id="Intro" stroke="none" stroke-width="1" fill="none" fill-rule="evenodd" mask="url(#mask-21)">
                        <g transform="translate(10.000000, 65.000000)">
                            <g id="Matches" stroke-width="1" fill="none">
                                <g id="Match/Loss" transform="translate(0.000000, 4.000000)">
                                    <g id="Match">
                                        <use fill="#FFFFFF" fill-rule="evenodd" xlink:href="#path-22"></use>
                                        <circle stroke="#F28B8D" stroke-width="1" cx="3" cy="3" r="2.5"></circle>
                                    </g>
                                </g>
                                <g id="Match/Win" transform="translate(8.000000, 10.000000)" fill="#84E9B0">
                                    <circle id="Match" cx="3" cy="3" r="3"></circle>
                                </g>
                                <circle id="Match" fill="#84E9B0" cx="27" cy="3" r="3"></circle>
                                <circle id="Match" fill="#84E9B0" cx="75" cy="8" r="3"></circle>
                                <g id="Match/Loss" transform="translate(104.000000, 8.000000)">
                                    <g id="Match">
                                        <use fill="#FFFFFF" fill-rule="evenodd" xlink:href="#path-23"></use>
                                        <circle stroke="#F28B8D" stroke-width="1" cx="3" cy="3" r="2.5"></circle>
                                    </g>
                                </g>
                                <circle id="Match" fill="#84E9B0" cx="83" cy="4" r="3"></circle>
                                <g id="Match/Loss" transform="translate(40.000000, 5.000000)">
                                    <g id="Match">
                                        <use fill="#FFFFFF" fill-rule="evenodd" xlink:href="#path-24"></use>
                                        <circle stroke="#F28B8D" stroke-width="1" cx="3" cy="3" r="2.5"></circle>
                                    </g>
                                </g>
                                <circle id="Match" fill="#84E9B0" cx="51" cy="6" r="3"></circle>
                                <g id="Match/Win" transform="translate(16.000000, 5.000000)" fill="#84E9B0">
                                    <circle id="Match" cx="3" cy="3" r="3"></circle>
                                </g>
                                <g id="Match/Win" transform="translate(32.000000, 2.000000)" fill="#84E9B0">
                                    <circle id="Match" cx="3" cy="3" r="3"></circle>
                                </g>
                                <g id="Match/Win" transform="translate(88.000000, 7.000000)" fill="#84E9B0">
                                    <circle id="Match" cx="3" cy="3" r="3"></circle>
                                </g>
                                <g id="Match/Win" transform="translate(96.000000, 11.000000)" fill="#84E9B0">
                                    <circle id="Match" cx="3" cy="3" r="3"></circle>
                                </g>
                                <circle id="Match" fill="#84E9B0" cx="59" cy="12" r="3"></circle>
                                <g id="Match/Win" transform="translate(64.000000, 13.000000)" fill="#84E9B0">
                                    <circle id="Match" cx="3" cy="3" r="3"></circle>
                                </g>
                            </g>
                            <rect id="KD" fill-opacity="0.5" fill="#000000" x="124" y="7" width="25" height="4" rx="2"></rect>
                        </g>
                    </g>
                    <g id="Tabs" stroke="none" stroke-width="1" fill="none" fill-rule="evenodd" mask="url(#mask-21)">
                        <g transform="translate(0.000000, 102.000000)">
                            <g id="Content" transform="translate(0.000000, 24.000000)">
                                <rect id="Background" fill-opacity="0.5" fill="#DAF0EF" x="0" y="0" width="169" height="72"></rect>
                                <rect id="Text" fill-opacity="0.05" fill="#000000" x="10" y="20" width="110" height="4" rx="2"></rect>
                                <rect id="Text" fill-opacity="0.05" fill="#000000" x="10" y="34" width="90" height="4" rx="2"></rect>
                                <rect id="Text" fill-opacity="0.05" fill="#000000" x="10" y="48" width="130" height="4" rx="2"></rect>
                            </g>
                            <g id="Header">
                                <g id="Inactive" fill-opacity="0.5">
                                    <rect id="Background" fill="#B5D8D7" x="0" y="0" width="169" height="24"></rect>
                                    <rect id="Heading" fill="#FFFFFF" x="10" y="10" width="40" height="4" rx="2"></rect>
                                    <rect id="Heading" fill="#FFFFFF" x="129" y="10" width="30" height="4" rx="2"></rect>
                                </g>
                                <g id="Active" transform="translate(59.000000, 0.000000)">
                                    <rect id="Background" fill="#ECF7F7" x="0" y="0" width="60" height="24"></rect>
                                    <rect id="Heading" fill-opacity="0.3" fill="#000000" x="10" y="10" width="40" height="4" rx="2"></rect>
                                </g>
                            </g>
                        </g>
                    </g>
                    <g id="Tabs" stroke="none" stroke-width="1" fill="none" fill-rule="evenodd" mask="url(#mask-21)">
                        <g transform="translate(0.000000, 198.000000)">
                            <g id="Content" transform="translate(10.000000, 44.000000)">
                                <g id="Weapon">
                                    <rect id="Icon" fill="#6C2E89" x="0" y="0" width="35" height="35" rx="3"></rect>
                                    <rect id="Title" fill-opacity="0.5" fill="#333333" x="50" y="16" width="51" height="4" rx="2"></rect>
                                </g>
                                <g id="Weapon" transform="translate(0.000000, 50.000000)">
                                    <rect id="Title" fill-opacity="0.5" fill="#333333" x="50" y="16" width="43" height="4" rx="2"></rect>
                                    <rect id="Icon" fill="#6C2E89" x="0" y="0" width="35" height="35" rx="3"></rect>
                                </g>
                                <g id="Weapon" transform="translate(0.000000, 100.000000)">
                                    <rect id="Title" fill-opacity="0.5" fill="#333333" x="50" y="16" width="75" height="4" rx="2"></rect>
                                    <rect id="Icon" fill="#6C2E89" x="0" y="0" width="35" height="35" rx="3"></rect>
                                </g>
                            </g>
                            <g id="Header">
                                <g id="Inactive" transform="translate(60.000000, 0.000000)">
                                    <rect id="Background" fill="#ECEFF1" x="0" y="0" width="109" height="24"></rect>
                                    <rect id="Heading" fill-opacity="0.75" fill="#FFFFFF" x="27" y="10" width="35" height="4" rx="2"></rect>
                                    <rect id="Heading" fill-opacity="0.75" fill="#FFFFFF" x="74" y="10" width="25" height="4" rx="2"></rect>
                                </g>
                                <g id="Active">
                                    <rect id="Background" fill="#FFFFFF" x="0" y="0" width="77" height="24"></rect>
                                    <rect id="Heading" fill-opacity="0.2" fill="#000000" x="10" y="10" width="57" height="4" rx="2"></rect>
                                </g>
                            </g>
                        </g>
                    </g>
                    <path d="M0,398.5 L169,398.5" id="Seperator" stroke="#EEEEEE" stroke-width="1" fill="none" stroke-linecap="square" mask="url(#mask-21)"></path>
                    <g id="Perks" stroke="none" stroke-width="1" fill="none" fill-rule="evenodd" mask="url(#mask-21)" fill-opacity="0.25">
                        <g transform="translate(10.000000, 414.000000)" id="Perk" fill="#527281">
                            <rect x="0" y="0" width="48" height="4" rx="2"></rect>
                            <rect x="0" y="14" width="53" height="4" rx="2"></rect>
                            <rect x="0" y="28" width="33" height="4" rx="2"></rect>
                            <rect x="82" y="0" width="39" height="4" rx="2"></rect>
                            <rect x="82" y="14" width="46" height="4" rx="2"></rect>
                            <rect x="82" y="28" width="58" height="4" rx="2"></rect>
                        </g>
                    </g>
                </g>
            </g>
        </g>
    </g>
</svg>