<?xml version="1.0" standalone="no"?>
<!DOCTYPE svg PUBLIC "-//W3C//DTD SVG 20010904//EN"
 "http://www.w3.org/TR/2001/REC-SVG-20010904/DTD/svg10.dtd">
<svg version="1.0" xmlns="http://www.w3.org/2000/svg"
 width="512.000000pt" height="512.000000pt" viewBox="0 0 512.000000 512.000000"
 preserveAspectRatio="xMidYMid meet">
<metadata>
Created by potrace 1.11, written by Peter Selinger 2001-2013
</metadata>
<g transform="translate(0.000000,512.000000) scale(0.100000,-0.100000)"
fill="#000000" stroke="none">
<path d="M4075 5104 c-45 -15 -60 -28 -78 -67 -30 -62 -7 -145 49 -182 33 -21
120 -35 134 -21 7 7 10 6 10 -3 0 -7 4 -10 8 -7 11 7 141 -20 183 -38 20 -8
39 -12 43 -9 3 4 6 2 6 -3 0 -6 19 -18 43 -28 66 -29 154 -104 212 -180 38
-52 110 -186 99 -186 -4 0 -1 -7 6 -15 7 -8 10 -15 7 -15 -3 0 1 -20 8 -44 7
-24 17 -82 20 -128 9 -100 26 -141 71 -168 36 -23 110 -35 120 -19 3 5 9 7 13
5 9 -6 45 25 67 59 22 34 19 176 -7 279 -5 23 -12 52 -15 66 -14 73 -87 224
-148 310 -43 61 -178 200 -194 200 -6 0 -12 4 -14 9 -10 26 -179 115 -284 149
-115 38 -301 56 -359 36z"/>
<path d="M1914 4891 c-3 -3 -9 -6 -12 -6 -13 -1 -56 -18 -66 -26 -83 -63 -146
-145 -146 -192 0 -9 -12 -42 -26 -73 -35 -78 -37 -202 -3 -265 21 -40 -1 -16
-37 41 -22 33 -42 60 -46 60 -5 0 -8 7 -8 15 0 8 -4 15 -10 15 -5 0 -10 5 -10
11 0 19 -90 97 -138 120 -43 20 -108 27 -162 16 -26 -4 -127 -65 -150 -89 -34
-35 -71 -97 -73 -121 -2 -12 -15 -42 -31 -66 -15 -23 -29 -52 -31 -62 -2 -11
-6 -23 -10 -28 -20 -33 12 -211 38 -211 4 0 5 -4 2 -10 -3 -5 -2 -10 2 -10 5
0 17 -16 27 -35 11 -19 23 -35 28 -35 4 0 7 -10 7 -22 -1 -13 -3 -17 -6 -8 -5
18 -90 60 -121 60 -12 0 -22 5 -22 11 0 8 -4 8 -13 1 -7 -6 -21 -10 -32 -8
-10 1 -41 -6 -69 -16 -110 -42 -183 -124 -201 -226 -3 -19 -12 -44 -21 -57
-22 -33 -28 -70 -28 -162 1 -59 6 -89 18 -107 9 -14 14 -26 11 -26 -4 0 3 -13
14 -29 12 -16 21 -34 21 -39 0 -6 4 -12 8 -14 8 -3 141 -198 162 -238 l13 -25
-34 26 c-38 28 -100 47 -145 44 -41 -3 -124 -26 -124 -34 0 -4 -15 -15 -32
-25 -41 -24 -82 -68 -107 -116 -23 -45 -22 -155 3 -216 15 -35 192 -303 225
-341 6 -7 11 -15 11 -18 0 -3 9 -15 20 -27 10 -12 17 -24 15 -28 -3 -5 2 -10
10 -14 8 -3 15 -12 15 -21 0 -8 4 -15 8 -15 4 0 16 -15 27 -32 10 -18 21 -35
24 -38 3 -3 51 -71 105 -152 55 -82 104 -148 110 -148 5 0 7 -3 3 -6 -6 -6
121 -196 135 -202 4 -2 8 -8 8 -14 0 -6 14 -27 30 -48 17 -21 30 -42 30 -48 0
-6 3 -12 8 -14 8 -3 11 -8 133 -186 46 -68 88 -132 94 -143 5 -10 13 -19 17
-19 5 0 8 -6 8 -14 0 -8 3 -16 8 -18 4 -1 21 -23 37 -48 17 -24 36 -51 43 -60
7 -8 13 -19 14 -25 2 -9 16 -28 43 -59 6 -6 16 -23 24 -38 8 -16 18 -28 23
-28 5 0 6 -5 3 -10 -3 -6 -2 -10 2 -10 5 0 17 -15 28 -32 10 -18 24 -38 29
-45 6 -6 22 -28 36 -48 14 -21 33 -46 43 -56 9 -10 17 -21 17 -24 0 -26 299
-315 327 -315 6 0 13 -3 15 -8 4 -10 90 -72 100 -72 11 0 112 -63 116 -72 2
-5 9 -5 14 -2 6 4 17 -1 25 -11 7 -11 13 -15 13 -11 0 5 7 3 15 -4 8 -7 15 -9
15 -6 0 4 10 1 23 -6 12 -7 24 -13 27 -14 7 -1 41 -14 65 -24 17 -7 87 -31
105 -35 3 -1 12 -5 20 -8 8 -3 29 -8 45 -11 17 -3 48 -10 71 -15 76 -19 217
-33 344 -34 74 -1 220 10 250 18 8 2 33 6 55 10 67 9 180 39 187 50 4 5 8 7 8
2 0 -4 16 -1 35 7 19 8 35 13 35 11 0 -2 12 2 27 10 15 8 30 12 35 9 4 -3 8 0
8 5 0 6 3 10 8 9 7 -2 203 91 212 101 3 3 17 12 31 19 33 18 168 119 238 180
84 73 162 154 216 227 16 22 33 41 37 43 4 2 8 8 8 14 0 11 51 81 63 86 4 2 5
7 2 12 -3 5 0 15 7 22 21 22 70 118 61 118 -4 0 -3 4 3 8 23 16 90 190 123
320 23 90 29 118 37 192 3 30 8 71 10 90 17 120 -2 400 -36 530 -5 19 -12 49
-16 65 -8 34 -8 32 -18 60 -50 131 -77 196 -118 285 -28 58 -58 123 -67 145
-39 87 -45 100 -45 105 -1 3 -5 11 -9 18 -5 6 -5 12 0 12 4 0 2 4 -5 8 -7 5
-14 18 -17 30 -2 11 -9 31 -16 44 -7 13 -11 23 -10 23 1 0 -3 14 -10 30 -7 17
-13 32 -13 35 -1 3 -5 11 -9 18 -5 6 -6 12 -3 12 3 0 -2 17 -11 38 -14 33
-161 452 -167 477 -13 52 -20 71 -26 80 -5 8 -11 26 -35 105 -1 3 -4 12 -7 20
-3 8 -13 40 -23 70 -9 30 -19 62 -22 70 -4 8 -5 18 -5 23 1 4 -2 7 -6 7 -5 0
-9 6 -10 13 -1 14 -7 36 -15 60 -4 9 -10 25 -14 35 -3 9 -7 23 -9 30 -5 27
-35 82 -44 82 -6 0 -10 6 -10 14 0 21 -83 91 -124 103 -75 23 -230 -5 -268
-49 -10 -11 -18 -17 -18 -13 0 5 -11 -4 -25 -19 -55 -59 -72 -121 -64 -233 1
-10 6 -40 11 -66 6 -27 11 -56 13 -65 2 -9 4 -17 5 -17 1 0 3 -11 5 -25 1 -14
8 -50 14 -80 6 -30 13 -66 15 -80 3 -14 5 -25 6 -25 1 0 3 -9 5 -20 5 -25 18
-88 20 -95 1 -3 5 -31 9 -63 5 -31 12 -60 17 -63 5 -3 7 -9 5 -13 -3 -4 1 -34
9 -67 7 -32 16 -76 19 -96 3 -21 10 -57 15 -80 6 -23 8 -44 6 -47 -3 -2 -1 -9
5 -16 5 -6 10 -28 12 -49 1 -20 5 -39 8 -41 11 -7 11 -85 0 -85 -6 0 -16 -5
-23 -10 -68 -57 -69 -58 -89 -35 -30 33 -38 45 -32 45 4 0 -3 8 -14 19 -12 10
-19 21 -15 25 3 3 1 6 -5 6 -7 0 -12 6 -12 14 0 7 -6 19 -13 25 -15 12 -125
169 -142 202 -5 10 -13 19 -17 19 -5 0 -8 6 -8 14 0 8 -4 16 -8 18 -4 2 -39
49 -77 106 -37 56 -73 102 -78 102 -6 0 -7 3 -4 6 4 4 -7 24 -23 44 -17 21
-30 42 -30 48 0 6 -3 12 -7 14 -5 2 -22 23 -38 48 -17 25 -69 101 -115 170
-47 69 -87 127 -90 130 -14 14 -50 70 -50 79 0 5 -4 11 -8 13 -12 5 -72 95
-72 108 0 6 -4 9 -9 6 -5 -3 -14 8 -21 24 -7 17 -16 30 -21 30 -5 0 -9 7 -9
15 0 8 -4 15 -9 15 -5 0 -13 9 -16 20 -3 11 -12 26 -18 32 -12 12 -74 103
-161 233 -21 33 -42 62 -46 65 -3 3 -17 23 -30 45 -13 22 -32 49 -42 59 -10
11 -18 23 -18 26 0 6 -11 21 -49 66 -5 7 -8 14 -5 16 2 3 -5 13 -16 23 -11 10
-20 22 -20 27 0 17 -89 97 -133 120 -40 20 -158 34 -173 19z"/>
<path d="M3370 4832 c-8 -3 -20 -11 -27 -18 -7 -7 -16 -14 -21 -16 -25 -11
-49 -60 -47 -100 1 -50 24 -108 42 -108 7 0 13 -4 13 -9 0 -17 32 -24 160 -35
86 -8 144 -16 160 -23 8 -3 29 -8 45 -10 17 -3 32 -9 33 -14 2 -5 12 -9 23 -9
11 0 27 -4 37 -9 9 -5 48 -23 85 -40 63 -30 106 -55 164 -96 13 -9 25 -16 27
-16 26 0 286 -271 286 -297 0 -6 4 -12 8 -14 25 -9 134 -237 147 -305 4 -21
11 -44 17 -50 6 -7 8 -13 6 -13 -3 0 -1 -19 3 -42 5 -24 12 -77 15 -118 3 -41
7 -84 9 -95 1 -11 3 -26 4 -33 1 -17 51 -67 76 -76 80 -32 147 -4 190 79 17
31 5 232 -20 348 -17 80 -25 110 -46 172 -12 39 -23 72 -24 75 -9 28 -65 145
-104 215 -60 106 -201 268 -311 356 -100 80 -246 162 -370 208 -19 7 -44 17
-55 22 -93 40 -466 90 -525 71z"/>
<path d="M365 1836 c-45 -25 -81 -71 -76 -98 0 -5 -3 -8 -8 -8 -6 0 -6 -12 -1
-30 5 -16 5 -32 0 -35 -6 -4 -7 -40 0 -40 1 0 3 -22 5 -50 10 -132 23 -209 50
-310 9 -33 18 -64 19 -70 1 -5 7 -20 14 -32 7 -12 12 -28 12 -35 1 -39 179
-348 201 -348 5 0 9 -5 9 -12 0 -18 208 -218 227 -218 4 0 16 -9 27 -19 47
-43 232 -136 341 -170 39 -13 77 -25 85 -28 8 -3 24 -7 35 -9 44 -7 70 -12 70
-14 0 -5 126 -20 210 -25 33 -2 62 -4 65 -5 7 -3 84 3 112 9 15 3 78 74 79 89
0 10 2 26 4 37 7 32 -16 88 -44 112 -14 13 -28 23 -31 24 -3 0 -14 3 -25 5
-11 3 -49 7 -85 10 -35 2 -80 7 -100 10 -19 3 -43 5 -52 5 -10 0 -18 3 -18 7
0 4 -12 9 -26 10 -14 1 -31 5 -37 9 -7 4 -21 9 -31 10 -11 2 -25 8 -33 14 -7
6 -13 9 -13 6 0 -3 -27 8 -60 24 -33 16 -65 29 -70 29 -6 0 -10 4 -10 8 0 10
-50 37 -62 34 -5 -1 -8 2 -8 7 0 5 -17 20 -37 32 -82 51 -248 205 -277 257 -5
10 -13 19 -17 22 -15 10 -109 154 -109 167 0 7 -3 13 -7 13 -6 0 -44 78 -49
100 0 3 -5 16 -11 30 -6 14 -12 30 -13 35 -2 6 -9 24 -16 40 -7 17 -13 33 -13
38 -1 4 -1 8 -2 10 0 1 -2 11 -3 22 -2 11 -7 40 -11 65 -4 25 -8 73 -9 107 -1
35 -4 63 -8 63 -5 0 -8 8 -8 18 0 21 -38 65 -65 77 -31 12 -99 13 -120 1z"/>
<path d="M100 1127 c0 -6 -3 -7 -6 -4 -10 10 -63 -32 -79 -62 -25 -50 -10
-230 31 -368 14 -46 25 -86 25 -90 0 -5 8 -16 17 -27 9 -10 16 -20 15 -22 -6
-10 66 -137 107 -188 28 -34 152 -156 159 -156 5 0 16 -9 26 -20 10 -11 21
-18 25 -15 3 2 13 -5 20 -16 8 -10 22 -19 32 -19 10 0 18 -4 18 -9 0 -19 216
-96 325 -116 69 -12 198 -16 229 -5 85 28 117 133 65 213 -28 42 -68 59 -149
63 -189 8 -370 81 -475 189 -42 43 -95 112 -95 124 0 6 -5 11 -10 11 -6 0 -9
3 -8 8 1 4 -8 27 -19 52 -46 99 -59 157 -68 295 -1 28 -4 52 -5 55 -3 6 -6 21
-8 36 -3 17 -34 48 -64 63 -33 17 -108 22 -108 8z"/>
</g>
</svg>
