<svg xmlns="http://www.w3.org/2000/svg" width="52" height="57" viewBox="0 0 52 57">
  <path fill="#263238" d="M43.51,16.67 C41.1554176,17.3105341 39.0192512,18.5790989 37.33,20.34 C35.39,13.43 31.16,3 27.05,1.27 C26.1608393,0.858386486 25.1267022,0.906919995 24.28,1.4 C21.7,2.86 20,7.73 21.49,16.89 C15.8,6.49 13.82,6.5 12.9,6.5 C12.0176753,6.52874958 11.2345201,7.07304241 10.9,7.89 C10.28,9.26 9.1,13.53 12.05,22.69 C8.44,17.75 7.33,17.12 6.05,17.17 C5.21659302,17.2155609 4.47541277,17.7148015 4.12,18.47 C3.02,20.47 3.12,25.66 6.53,33.32 C5.38529702,32.2947003 3.92458926,31.6913645 2.39,31.61 C1.55056081,31.6651252 0.796895057,32.1437029 0.39,32.88 C-1,35.39 1.9,42.44 5.39,47.2 C8.25,51.12 14.02,57.1500153 22.39,57.1500153 C23.5550564,57.1515352 24.7173993,57.0376456 25.86,56.81 C26.3958984,56.706393 26.8358152,56.3247578 27.0140381,55.8088526 C27.192261,55.2929475 27.0817136,54.7211507 26.7240381,54.3088526 C26.3663626,53.8965545 25.8158984,53.706393 25.28,53.81 C18.34,55.15 13.11,51.34 9.94,47.91 C5.19,42.8 3.12,36.65 3,34.78 C4,35.17 6.84,36.86 12.41,43.99 C12.9143221,44.6447046 13.8474121,44.7805948 14.5175205,44.2969278 C15.1876289,43.8132609 15.3525416,42.8848608 14.89,42.2 C7.07,30.35 6.31,23.2 6.57,20.76 C8.86,23.1 14.57,31.7 18.92,38.18 C19.3852631,38.8301433 20.2726363,39.0124731 20.9565544,38.5984537 C21.6404725,38.1844343 21.8903358,37.3136625 21.53,36.6 C12.53,20.08 12.84,12.53 13.37,10.06 C14.71,11.42 18.31,16.19 25.86,32.62 C26.2230711,33.3276437 27.067775,33.6390979 27.8033249,33.3365313 C28.5388748,33.0339646 28.9199387,32.2182939 28.68,31.46 C21.36,11.46 24.54,4.76 25.75,4.06 C27.33,4.06 31.8,11.66 34.52,21.61 C34.69,22.23 34.85,22.83 35,23.42 C34.614809,24.1014711 34.3126556,24.8266392 34.1,25.58 C32.58,31.09 31.16,43.66 34,47 C34.5923274,47.7239203 35.5099948,48.1000135 36.44,48 C37.6167928,47.8717089 38.672108,47.2171928 39.31,46.22 C42,42.31 40.43,32.47 38.31,23.86 C39.7538367,21.8074498 41.8403723,20.2944476 44.24,19.56 C45.295404,19.2065272 46.4599832,19.4860262 47.24,20.28 C48.47,21.65 50.62,26.82 44.11,45.04 C43.855844,45.8260488 44.2760341,46.6711775 45.0561514,46.9429954 C45.8362688,47.2148133 46.6906584,46.813789 46.98,46.04 C52.18,31.51 52.98,22.15 49.52,18.21 C47.9664076,16.6060448 45.6434965,16.010823 43.51,16.67 Z M36.8,44.57 C36.6853729,44.7784464 36.4959775,44.9356803 36.27,45.01 C35.16,43.68 35.15,35.76 36.38,29.28 C38.71,40.47 37.35,43.76 36.8,44.57 Z" transform="translate(0 -1)"/>
</svg>
